<?xml version="1.0" encoding="utf-8"?>
<!-- Generator: Adobe Illustrator 15.1.0, SVG Export Plug-In . SVG Version: 6.00 Build 0)  -->
<!DOCTYPE svg PUBLIC "-//W3C//DTD SVG 1.1//EN" "http://www.w3.org/Graphics/SVG/1.1/DTD/svg11.dtd">
<svg version="1.1" xmlns="http://www.w3.org/2000/svg" xmlns:xlink="http://www.w3.org/1999/xlink" x="0px" y="0px" width="500px"
	 height="500px" viewBox="0 0 500 500" enable-background="new 0 0 500 500" xml:space="preserve">
<g id="Layer_1" display="none">
	<rect x="-400" y="-469" display="inline" fill="none" width="1016" height="368"/>
	<text transform="matrix(1 0 0 1 -400 -440.5244)" display="inline"><tspan x="0" y="0" font-family="'Evilz'" font-size="36">124567890-=</tspan><tspan x="0" y="43.2" font-family="'Evilz'" font-size="36">qwertyuiop[]\</tspan><tspan x="0" y="86.4" font-family="'Evilz'" font-size="36">asdfghjkl;’`</tspan><tspan x="0" y="129.6" font-family="'Evilz'" font-size="36">zxcvbnm,./</tspan><tspan x="0" y="172.8" font-family="'Evilz'" font-size="36">~!@#$%^&amp;*()_+QWERTYUIOP{}|AS</tspan><tspan x="0" y="216" font-family="'Evilz'" font-size="36">DFGHJKL:”ZXCVBNM&lt;&gt;?</tspan></text>
	<g display="inline">
		<path fill="#1A1A1A" d="M25,177.272L69.129,66.014l78.941,111.259H25z M146.207,189.717l102.55,248.62L26.872,189.717H146.207z
			 M82.805,61.663h172.166l-96.336,106.908L82.805,61.663z M159.259,189.717h183.354l-87.642,231.826L159.259,189.717z
			 M254.971,80.313l83.291,96.959H167.336L254.971,80.313z M254.971,61.663h166.575l-74.583,106.301L254.971,61.663z
			 M355.664,189.717h118.088l-210.08,245.5L355.664,189.717z M432.111,68.51L475,177.272H353.801L432.111,68.51z"/>
	</g>
</g>
<g id="Layer_2">
	<g>
		<path d="M419.781,288.154c0,3.934-1.449,7.602-4.328,11.013c-3.924,5.245-8.912,7.847-14.936,7.847
			c-7.857,0-16.643-4.179-26.322-12.569c-3.678,8.391-12.58,23.188-26.738,44.403c-10.746,16.258-17.547,31.972-20.426,47.164
			c-1.578,18.87,8.379,37.335,29.871,55.415c-82.014-9.424-146.076-36.812-192.185-82.132
			c-19.136-19.126-33.934-41.002-44.414-65.629c-0.267-0.789-0.522-1.45-0.778-1.973c-7.345,4.979-14.03,7.474-20.042,7.474
			c-6.034,0-11.151-2.494-15.331-7.474c-2.623-3.667-3.934-7.323-3.934-11.002c0-11.013,9.819-22.271,29.478-33.805
			c-1.322-9.946-1.961-19.638-1.961-29.083c0-49.51,15.842-89.595,47.548-120.256c29.605-28.816,64.19-41.663,103.753-38.508
			c39.297,2.879,70.607,17.036,93.924,42.441c25.682,28.038,37.738,66.94,36.162,116.728c-0.256,12.047-1.313,23.315-3.146,33.794
			C408.502,263.794,419.781,275.841,419.781,288.154z M325.068,209.551c-26.48,11.002-55.82,16.503-88.038,16.503
			c-7.079,0-13.241-0.256-18.476-0.777c-37.207-5.769-64.445-18.987-81.738-39.691c2.612,14.67,4.968,24.755,7.068,30.256
			l10.224-7.463l5.885,30.65l22.793-19.254l13.369,34.19l20.832-20.832l12.963,28.293l20.832-26.332l18.871,20.831l20.83-22.792
			l11.781,11.791C313.789,232.622,321.391,220.831,325.068,209.551z M162.159,135.074c-3.529,3.539-5.298,7.804-5.298,12.782
			c0,4.979,1.77,9.232,5.298,12.772c3.54,3.528,7.793,5.298,12.772,5.298c5.234,0,9.627-1.77,13.166-5.298
			c3.54-3.54,5.31-7.793,5.31-12.772c0-4.979-1.77-9.243-5.31-12.782c-3.539-3.528-7.932-5.299-13.166-5.299
			C169.952,129.775,165.698,131.545,162.159,135.074z M288.715,159.839c-3.539,3.539-5.309,7.793-5.309,12.771
			c0,5.245,1.77,9.627,5.309,13.167c3.529,3.539,7.783,5.309,12.771,5.309c4.969,0,9.232-1.77,12.773-5.309
			c3.539-3.54,5.297-7.922,5.297-13.167c0-4.979-1.758-9.232-5.297-12.771c-3.541-3.529-7.805-5.299-12.773-5.299
			C296.498,154.541,292.244,156.31,288.715,159.839z"/>
	</g>
</g>
<g id="Layer_4" display="none">
	<path display="inline" d="M434.51,249.997c3.667,7.868,5.906,15.464,6.695,22.799c1.044,28.038-10.097,73.241-33.412,135.586
		l19.648,22.005l-19.648,3.155l22.004,18.87l-32.217-1.194l-4.328,11.002c-29.616-10.213-52.41-18.997-68.38-26.332
		c-6.557-3.135-11.535-5.757-14.937-7.847c-3.678-3.155-5.512-6.546-5.512-10.213c0-3.412,1.834-6.567,5.512-9.446
		c-10.224-22.793-18.859-46.503-25.938-71.13c-2.89-10.213-5.245-20.171-7.079-29.872l-12.964,25.544l-14.542-24.371l-12.186,26.737
		c-12.569-26.204-20.309-43.091-23.188-50.703c-1.045,0.789-2.228,1.706-3.54,2.75L188.88,442.178l-28.678-3.924l20.426-150.512
		c-7.335-4.456-11.002-10.49-11.002-18.081c0-9.962,5.501-16.774,16.503-20.453L205,110.093c-83.582,9.18-143.582,33.018-180,71.525
		c11.535-23.838,24.893-44.275,40.085-61.301c36.951-40.874,80.182-61.322,129.702-61.322c14.669,0,29.872,1.845,45.586,5.501
		l-3.54,29.083l-21.621,158.785c9.958-0.533,27.772-3.54,53.454-9.041c-20.17-17.814-30.255-39.296-30.255-64.456
		c0-30.917,11.919-61.834,35.756-92.751c24.883-32.217,51.621-48.336,80.171-48.336c29.083,0,56.728,15.714,82.921,47.164
		c25.16,30.395,37.74,60.788,37.74,91.172C475,205.988,461.503,230.615,434.51,249.997z M430.98,199.305
		c9.169-10.48,13.753-22.527,13.753-36.151c0-23.061-9.04-42.708-27.111-58.956C400.33,88.739,380.011,81.01,356.706,81.01
		c-23.849,0-44.286,7.729-61.312,23.188c-17.825,15.992-26.728,35.63-26.728,58.956c0,28.55,16.504,47.676,49.521,57.377v3.923
		c0,4.457,1.503,8.391,4.521,11.791c3.006,3.412,6.748,5.246,11.204,5.502c4.446,0.532,7.857-0.256,10.214-2.356
		c3.4,2.889,7.206,4.317,11.396,4.317c3.934,0,7.474-1.301,10.607-3.923c2.367,1.834,5.629,2.494,9.829,1.962
		c4.457-0.256,8.188-2.09,11.194-5.502c3.018-3.4,4.521-7.334,4.521-11.791v-3.134C408.71,217.119,421.802,209.784,430.98,199.305z
		 M336.258,136.426c4.723,5.501,7.079,12.186,7.079,20.043c0,7.856-2.356,14.541-7.079,20.042
		c-4.712,5.501-10.469,8.252-17.292,8.252c-6.546,0-12.175-2.751-16.887-8.252c-4.723-5.501-7.079-12.186-7.079-20.042
		c0-7.857,2.356-14.542,7.079-20.043c4.712-5.512,10.341-8.263,16.887-8.263C325.789,128.163,331.546,130.914,336.258,136.426z
		 M362.793,192.236c1.973,3.4,2.953,6.674,2.953,9.818c0,4.456-3.027,6.685-9.04,6.685c-7.079,0-10.619-2.623-10.619-7.868
		c0-3.134,1.184-6.215,3.54-9.232c2.355-3.006,4.584-4.52,6.674-4.52C358.667,187.119,360.82,188.824,362.793,192.236z
		 M408.966,136.426c4.723,5.501,7.079,12.186,7.079,20.043c0,7.856-2.356,14.541-7.079,20.042
		c-4.712,5.501-10.469,8.252-17.292,8.252c-6.546,0-12.175-2.751-16.887-8.252c-4.724-5.501-7.079-12.186-7.079-20.042
		c0-7.857,2.355-14.542,7.079-20.043c4.712-5.512,10.341-8.263,16.887-8.263C398.497,128.163,404.254,130.914,408.966,136.426z"/>
</g>
<g id="Layer_3" display="none">
	<path display="inline" d="M247.058,437.7c-26.994,0-50.576-3.263-70.747-9.809c-22.793-7.611-42.452-21.492-58.955-41.663
		c-17.548-21.215-26.333-43.092-26.333-65.629c0-28.294,11.663-53.582,34.989-75.858c2.878-35.106,5.757-70.213,8.635-105.319
		c4.712-45.854,11.258-69.702,19.659-71.535c7.857-1.578,16.108,15.586,24.754,51.492c7.079,28.816,14.147,57.761,21.216,86.845
		c27.782-3.135,44.414-4.841,49.915-5.107c5.757-0.256,14.286,0.267,25.543,1.567c6.546,1.056,12.975,1.973,19.265,2.751
		c3.4-9.947,7.985-29.083,13.753-57.378c6.023-29.339,10.607-49.382,13.763-60.128c5.757-18.081,11.386-26.588,16.888-25.543
		c8.379,1.577,14.946,25.287,19.658,71.13c2.879,35.373,5.885,70.746,9.041,106.119c27.249,23.055,40.874,50.048,40.874,80.965
		c0,23.326-8.124,45.33-24.371,66.013c-16.247,20.704-36.546,34.456-60.917,41.279C300.362,434.438,274.818,437.7,247.058,437.7z
		 M142.313,315.888c4.584,4.712,10.16,7.058,16.706,7.058c6.802,0,12.505-2.346,17.1-7.058c4.574-4.733,6.866-10.362,6.866-16.908
		s-2.292-12.175-6.866-16.908c-4.595-4.713-10.298-7.058-17.1-7.058c-6.546,0-12.122,2.345-16.706,7.058
		c-4.584,4.733-6.876,10.362-6.876,16.908S137.729,311.154,142.313,315.888z M317.398,348.894
		c-29.51,11.258-58.113,16.888-85.778,16.888c-18.188,0-34.403-2.751-48.636-8.252c2.9,15.735,14.755,26.461,35.586,32.239
		c8.699,2.601,18.838,3.923,30.437,3.923C288.806,390.813,311.599,375.888,317.398,348.894z M320.341,282.071
		c-4.584,4.733-6.865,10.362-6.865,16.908s2.281,12.175,6.865,16.908c4.585,4.712,10.149,7.058,16.717,7.058
		c6.802,0,12.494-2.346,17.09-7.058c4.573-4.733,6.876-10.362,6.876-16.908s-2.303-12.175-6.876-16.908
		c-4.596-4.713-10.288-7.058-17.09-7.058C330.49,275.014,324.926,277.358,320.341,282.071z"/>
</g>
<g id="Layer_5" display="none">
	<g display="inline">
		<path d="M118.854,308.895c5.241,0,9.757,1.907,13.549,5.698c3.792,3.804,5.688,8.319,5.688,13.549
			c0,6.808-2.876,12.047-8.628,15.712l2.344,17.278c7.328-8.65,25.66-18.854,54.984-30.635
			c-12.313-13.357-18.459-28.525-18.459-45.548c0-4.976,0.521-9.95,1.566-14.923c-41.095-2.1-61.387-7.979-60.865-17.673
			c1.044-3.141,3.664-5.89,7.861-8.244c10.46-5.752,28.27-9.683,53.397-11.781l67.149-175.521
			c2.877-7.329,6.413-10.993,10.599-10.993c4.454,0,8.118,3.92,10.994,11.78c2.875,5.497,25.649,61.91,68.332,169.238
			c36.376,2.354,55.762,9.033,58.105,20.026c-0.256,11.524-19.898,18.854-58.895,21.986c2.876,6.55,4.314,13.485,4.314,20.813
			c0,13.88-5.241,28.536-15.701,43.981c5.241,6.806,8.895,14.924,10.992,24.34c4.188,18.586,7.456,30.762,9.821,36.526
			c3.398,8.371,8.5,15.051,15.317,20.023c3.132,2.611,12.825,7.723,29.059,15.307C393.459,435.598,400,439.913,400,442.8
			c0,3.143-4.187,4.719-12.56,4.719c-4.452,0-14.401-0.789-29.835-2.365c-15.456-1.566-27.76-2.354-36.919-2.354
			c-12.57,0-23.041,1.182-31.413,3.535c-17.022,5.231-32.861,7.851-47.518,7.851c-6.285,0-15.115-1.438-26.501-4.324
			c-11.387-2.876-19.834-4.313-25.331-4.313c-1.566,0-5.241,0.648-10.992,1.971c-3.664,0.777-7.329,0.382-10.993-1.194
			c-4.974-2.364-7.456-5.517-7.456-9.468c0-3.42,1.566-8.16,4.708-14.211c3.664-10.534,10.077-27.77,19.237-51.704
			c-13.613,4.975-26.832,7.467-39.656,7.467c-4.719,0-8.245-0.659-10.599-1.969l10.204,72.656l-12.165,1.958l-20.43-105.346
			c-7.85-3.132-11.781-9.001-11.781-17.62c0-5.218,1.833-9.713,5.497-13.506C109.161,310.791,113.613,308.895,118.854,308.895z
			 M205.634,305.763c3.931,0,7.19-1.311,9.812-3.93c2.62-2.609,3.93-5.891,3.93-9.812c0-3.663-1.31-6.881-3.93-9.628
			c-2.621-2.75-5.881-4.124-9.812-4.124c-3.675,0-6.87,1.374-9.618,4.124c-2.748,2.747-4.132,5.965-4.132,9.628
			c0,3.921,1.384,7.202,4.132,9.812C198.765,304.452,201.959,305.763,205.634,305.763z M249.222,327.354
			c10.215-3.143,15.179-6.934,14.923-11.389c-9.693,2.622-20.025,3.015-31.019,1.174
			C233.638,324.479,239.007,327.877,249.222,327.354z M290.455,302.609c3.665,0,6.86-1.3,9.609-3.919
			c2.758-2.62,4.132-5.891,4.132-9.822c0-3.919-1.374-7.189-4.132-9.81c-2.749-2.609-5.944-3.932-9.609-3.932
			c-3.93,0-7.264,1.322-10.012,3.932c-2.749,2.62-4.134,5.891-4.134,9.81c0,3.932,1.385,7.202,4.134,9.822
			C283.191,301.31,286.525,302.609,290.455,302.609z"/>
	</g>
</g>
</svg>
