<?xml version="1.0" encoding="utf-8"?>
<!-- Generator: Adobe Illustrator 15.1.0, SVG Export Plug-In . SVG Version: 6.00 Build 0)  -->
<!DOCTYPE svg PUBLIC "-//W3C//DTD SVG 1.1//EN" "http://www.w3.org/Graphics/SVG/1.1/DTD/svg11.dtd">
<svg version="1.1" id="Layer_1" xmlns="http://www.w3.org/2000/svg" xmlns:xlink="http://www.w3.org/1999/xlink" x="0px" y="0px"
	 width="500px" height="500px" viewBox="0 0 500 500" enable-background="new 0 0 500 500" xml:space="preserve">
<g>
	<path d="M433.442,294.613c0.33,70.617-8.79,116.724-27.369,138.348c-11.486,12.839-31.59,22.806-60.301,29.899
		c-26.353,6.749-56.423,10.131-90.202,10.131c-36.487,0-69.428-3.884-98.819-11.65c-31.761-8.104-52.876-19.259-63.345-33.446
		c-17.912-24.668-26.858-72.466-26.858-143.413c0-44.594,4.22-86.484,12.668-125.676c9.454-43.584,22.802-75.841,40.034-96.794
		c20.943-26.009,60.472-39.021,118.583-39.021c9.454,0,18.916,0.34,28.373,1.014c0.674,13.516,1.183,26.527,1.526,39.02h-23.82
		v21.287h24.831c0.674,14.867,1.348,28.377,2.027,40.539l-23.311,2.028l2.028,21.789l22.803-2.024
		c1.018,16.214,2.192,30.745,3.546,43.581h-16.723v21.283h18.751c4.055,31.326,8.784,49.014,14.187,53.052
		c3.045,2.69,9.128,5.558,18.248,8.581l-6.722,11.63l18.943,10.75l9.574-16.62c12.496,2.708,27.864,5.581,46.106,8.619v21.789
		h21.287v-18.751C410.637,291.905,421.95,293.267,433.442,294.613z M128.626,182.368c-5.241,5.244-7.856,11.578-7.856,19.005
		c0,7.774,2.615,14.276,7.856,19.51c5.234,5.241,11.568,7.856,19.005,7.856c7.426,0,13.846-2.615,19.255-7.856
		c5.399-5.234,8.107-11.736,8.107-19.51c0-7.427-2.708-13.761-8.107-19.005c-5.409-5.234-11.829-7.853-19.255-7.853
		C140.194,174.515,133.86,177.134,128.626,182.368z M391.887,336.679c-44.341,14.187-93.933,21.279-148.757,21.279
		c-50.77-2.357-91.557-11.822-122.36-28.373c8.125,31.081,31.477,52.87,70.067,65.365c15.902,5.073,34.35,8.111,55.341,9.128
		C320.3,400.704,368.867,378.234,391.887,336.679z M277.355,25.019c59.125,7.097,97.306,22.63,114.545,46.608
		c11.148,15.2,20.771,43.739,28.881,85.618c7.768,40.532,11.987,82.752,12.668,126.645c-11.148-1.347-22.469-2.873-33.954-4.563
		l-0.007-19.679h-21.287l0.035,16.53c-15.885-2.357-29.391-4.88-40.54-7.575l8.578-15.544l-18.943-10.75l-11.595,21.394
		c-8.743-2.757-14.626-5.423-17.651-8.005c-3.024-2.58-6.048-17.815-9.072-45.711h21.788v-21.792h-24.325
		c-1.01-12.551-2.198-26.755-3.546-42.615l23.314-1.98l-2.027-21.792l-22.298,2.028c-1.018-13.176-1.862-26.353-2.536-39.525h18.242
		V63.025h-18.744L277.355,25.019z M342.474,162.857c-5.237,5.409-7.85,11.83-7.85,19.259c0,7.434,2.612,13.767,7.85,19.001
		c5.237,5.241,11.568,7.856,19.005,7.856c7.768,0,14.27-2.615,19.514-7.856c5.23-5.234,7.855-11.568,7.855-19.001
		c0-7.43-2.625-13.85-7.855-19.259c-5.244-5.399-11.746-8.107-19.514-8.107C354.042,154.75,347.711,157.458,342.474,162.857z"/>
</g>
</svg>
