<?xml version="1.0" encoding="utf-8"?>
<!-- Generator: Adobe Illustrator 14.0.0, SVG Export Plug-In . SVG Version: 6.00 Build 43363)  -->
<!DOCTYPE svg PUBLIC "-//W3C//DTD SVG 1.1//EN" "http://www.w3.org/Graphics/SVG/1.1/DTD/svg11.dtd">
<svg version="1.1" id="Layer_1" xmlns="http://www.w3.org/2000/svg" xmlns:xlink="http://www.w3.org/1999/xlink" x="0px" y="0px"
	 width="454.736px" height="202.105px" viewBox="0 0 454.736 202.105" enable-background="new 0 0 454.736 202.105"
	 xml:space="preserve">
<path fill="none" stroke="#FFFFFF" stroke-width="1.2" stroke-miterlimit="10" d="M305.201,30.22
	c-123.333-8.667-182.123,6.856-173.021,62.018c8.119,49.21,141.395,55.132,173.862,55.864c29.963,0.679,98.387-28.724,62.605-75.716
	c-27.324-35.881-99.485-44.513-139.24-44.834c-30.505-0.246-126.002,9.145-107.965,66.353
	c11.764,37.312,70.747,44.016,99.709,46.156c46.161,3.412,123.717,25.492,158.957-21.955c12.426-25.219,2.263-56.052-24.574-74.553
	c-19.333-11.667-29.333-21-125-24.646c-46.745-0.143-65.174-0.732-112.331,5.215"/>
</svg>
