<?xml version="1.0" encoding="utf-8"?>
<!-- Generator: Adobe Illustrator 15.1.0, SVG Export Plug-In . SVG Version: 6.00 Build 0)  -->
<!DOCTYPE svg PUBLIC "-//W3C//DTD SVG 1.1//EN" "http://www.w3.org/Graphics/SVG/1.1/DTD/svg11.dtd">
<svg version="1.1" id="Layer_1" xmlns="http://www.w3.org/2000/svg" xmlns:xlink="http://www.w3.org/1999/xlink" x="0px" y="0px"
	 width="250px" height="250px" viewBox="0 0 250 250" enable-background="new 0 0 250 250" xml:space="preserve">
<g id="Layer_1_1_" display="none">
	<path display="inline" d="M80.533,126.221l-0.328,25.648l-0.063,4.881l3.985,2.818l20.942,14.811l-24.493,7.613l-4.662,1.447
		l-1.449,4.662l-7.614,24.496L52.04,191.655l-2.819-3.985l-4.88,0.063l-25.649,0.328l15.342-20.56l2.919-3.911l-1.568-4.624
		l-8.237-24.291l24.292,8.237l4.623,1.566l3.912-2.918L80.533,126.221 M90.058,107.527l-35.636,26.592L12.313,119.84l14.28,42.108
		L0,197.584l44.46-0.566l25.674,36.301l13.199-42.459l42.459-13.197l-36.303-25.673L90.058,107.527L90.058,107.527z"/>
	
		<line display="inline" fill="none" stroke="#000000" stroke-width="15" stroke-miterlimit="10" x1="101.638" y1="93.01" x2="112.339" y2="79.288"/>
	<path display="inline" d="M81.857,101.957c0-6.581,5.335-11.916,11.916-11.916s11.915,5.334,11.915,11.916
		c0,5.975-4.402,10.908-10.137,11.769l-0.12,9.361c10.917-0.85,19.542-9.999,19.542-21.13c0-11.69-9.51-21.201-21.2-21.201
		s-21.201,9.51-21.201,21.201c0,3.554,0.884,6.905,2.436,9.85l7.614-5.681C82.135,104.826,81.857,103.425,81.857,101.957z"/>
</g>
<g id="Layer_2" display="none">
	<g display="inline">
		<path fill="none" stroke="#000000" stroke-width="8" stroke-miterlimit="10" d="M116.767,82.673
			c-1.424-1.102-2.899-2.23-4.427-3.386c0.015-1.902,0.045-3.759,0.095-5.571"/>
		<path fill="none" stroke="#000000" stroke-width="8" stroke-miterlimit="10" stroke-dasharray="11.9219,5.9609" d="
			M112.654,68.186c2.044-38.372,14.79-54.537,66.429-51.022c73.194,4.982,61.767,97.58,68.483,149.615
			c4.666,36.158-57.771,64.783-71.371,25.078c-21.319-62.25-10.034-70.444-57.247-107.482"/>
	</g>
</g>
<g id="Layer_3">
	<g>
		<g>
			<path fill="#F2F2F2" d="M80.857,128.114l-0.319,24.956l-0.061,4.748l3.877,2.744l20.376,14.408l-23.832,7.407l-4.535,1.409
				l-1.41,4.536l-7.409,23.833l-14.411-20.377l-2.743-3.877l-4.749,0.061l-24.956,0.318l14.927-20.004l2.84-3.806l-1.525-4.499
				l-8.015-23.635l23.636,8.016l4.498,1.524l3.807-2.84L80.857,128.114 M90.125,109.926L55.452,135.8L14.48,121.907l13.894,40.97
				L2.5,197.55l43.258-0.553l24.98,35.321l12.843-41.313l41.312-12.842l-35.322-24.979L90.125,109.926L90.125,109.926z"/>
		</g>
		<g>
			
				<rect x="99.293" y="80.659" transform="matrix(-0.7885 -0.615 0.615 -0.7885 135.8268 224.9546)" fill="#F2F2F2" width="14.595" height="16.931"/>
		</g>
		<g>
			<path fill="#F2F2F2" d="M82.145,104.506c0-6.403,5.19-11.594,11.593-11.594c6.403,0,11.593,5.19,11.593,11.594
				c0,5.813-4.283,10.613-9.863,11.451l-0.117,9.108c10.622-0.827,19.014-9.728,19.014-20.559c0-11.375-9.253-20.628-20.627-20.628
				c-11.375,0-20.627,9.253-20.627,20.628c0,3.458,0.86,6.719,2.37,9.584l7.408-5.528C82.416,107.298,82.145,105.935,82.145,104.506
				z"/>
		</g>
		<g>
			<g>
				<path fill="#F2F2F2" d="M199.753,214.544v-7.783c3.313,0,6.782-0.534,10.315-1.587l2.223,7.46
					C208.036,213.902,203.816,214.544,199.753,214.544z M193.27,213.961c-4.561-0.85-8.658-2.607-12.178-5.225l4.645-6.246
					c2.561,1.902,5.574,3.188,8.959,3.818L193.27,213.961z M218.178,210.48l-3.104-7.138c3.264-1.421,6.383-3.223,9.27-5.354
					l4.625,6.26C225.609,206.73,221.979,208.827,218.178,210.48z M176.229,204.126c-2.53-3.036-4.541-6.699-5.977-10.887
					l-0.174-0.511l7.371-2.498l0.167,0.484c1.126,3.287,2.671,6.121,4.591,8.426L176.229,204.126z M233.771,200.251l-5.32-5.681
					c2.674-2.504,4.933-5.237,6.717-8.122l6.62,4.094C239.645,194.01,236.945,197.275,233.771,200.251z M168.229,187.195
					c-1.225-3.739-2.367-7.385-3.494-11.147l7.457-2.233c1.107,3.699,2.23,7.285,3.436,10.961L168.229,187.195z M244.729,184.85
					l-7.183-3.002c1.356-3.242,2.087-6.558,2.172-9.855l7.782,0.203C247.389,176.458,246.456,180.716,244.729,184.85z
					 M163.093,170.445c-0.985-3.438-1.942-6.902-3.101-11.233l7.52-2.011c1.146,4.283,2.09,7.708,3.063,11.1L163.093,170.445z
					 M239.354,166.785c-0.42-3.454-0.793-7.29-1.138-11.729l7.761-0.604c0.336,4.322,0.696,8.049,1.104,11.388L239.354,166.785z
					 M158.504,153.605c-1.12-4.232-2.055-7.737-3.029-11.07l7.474-2.182c0.997,3.42,1.946,6.974,3.081,11.262L158.504,153.605z
					 M237.803,149.218c-0.248-3.78-0.472-7.669-0.693-11.63l7.771-0.438c0.221,3.937,0.441,7.801,0.688,11.557L237.803,149.218z
					 M153.805,137.145c-1.305-3.934-2.609-7.188-4.104-10.244l6.991-3.422c1.654,3.377,3.084,6.941,4.502,11.213L153.805,137.145z
					 M236.781,131.794c-0.182-3.157-0.426-7.323-0.717-11.547l7.766-0.534c0.294,4.264,0.54,8.459,0.722,11.637L236.781,131.794z
					 M147.098,122.121c-1.813-3.007-3.908-5.908-6.402-8.868l5.949-5.018c2.765,3.277,5.092,6.505,7.119,9.867L147.098,122.121z
					 M235.641,114.497c-0.328-4.134-0.679-7.877-1.072-11.443l7.736-0.853c0.402,3.645,0.76,7.465,1.096,11.68L235.641,114.497z
					 M136.986,109.119c-2.379-2.504-5.029-5.059-8.104-7.81l5.188-5.802c3.236,2.894,6.035,5.593,8.561,8.252L136.986,109.119z
					 M124.592,97.58c-2.629-2.227-2.091-1.709-5.274-4.206l4.804-6.125c3.259,2.557,2.796,2.101,5.501,4.39L124.592,97.58z
					 M233.885,97.379c-0.519-3.961-1.111-7.75-1.765-11.263l7.653-1.421c0.677,3.648,1.293,7.576,1.828,11.674L233.885,97.379z
					 M230.992,80.556c-0.85-3.85-1.816-7.515-2.874-10.893l7.429-2.325c1.124,3.59,2.148,7.473,3.047,11.54L230.992,80.556z
					 M115.996,75.67l-7.772-0.414c0.234-4.399,0.595-12.101,1.104-15.697l7.707,1.09C116.558,64.019,116.218,71.5,115.996,75.67z
					 M226.311,64.374c-1.354-3.622-2.875-7.017-4.525-10.092l6.857-3.681c1.816,3.383,3.484,7.101,4.959,11.05L226.311,64.374z
					 M117.985,55.199l-7.616-1.609c0.945-4.47,2.166-8.338,3.733-11.824l7.1,3.191C119.865,47.93,118.813,51.28,117.985,55.199z
					 M219.004,49.573c-2.027-3.122-4.285-5.966-6.711-8.452l5.572-5.436c2.781,2.852,5.361,6.098,7.667,9.649L219.004,49.573z
					 M123.672,40.407l-6.516-4.259c2.408-3.684,5.416-6.831,8.944-9.355l4.529,6.329C127.854,35.11,125.577,37.494,123.672,40.407z
					 M208.35,37.497c-2.74-2.249-5.754-4.198-8.957-5.794l3.471-6.967c3.728,1.856,7.232,4.125,10.425,6.745L208.35,37.497z
					 M135.044,30.51l-3.407-6.998c3.461-1.685,7.448-3.018,11.852-3.961l1.631,7.611C141.33,27.974,137.939,29.1,135.044,30.51z
					 M194.471,29.571c-3.248-1.21-6.769-2.148-10.459-2.789l1.332-7.669c4.16,0.723,8.146,1.787,11.844,3.164L194.471,29.571z
					 M150.518,26.243l-1.009-7.718c3.648-0.477,7.683-0.761,11.987-0.843l0.148,7.783C157.626,25.541,153.883,25.803,150.518,26.243
					z M178.579,26.058c-0.69-0.065-1.392-0.123-2.101-0.171c-3.211-0.219-6.304-0.358-9.188-0.417l0.155-7.782
					c3.01,0.06,6.227,0.206,9.563,0.432c0.78,0.053,1.549,0.116,2.307,0.188L178.579,26.058z"/>
			</g>
		</g>
	</g>
</g>
</svg>
