<?xml version="1.0" encoding="utf-8"?>
<!-- Generator: Adobe Illustrator 15.1.0, SVG Export Plug-In . SVG Version: 6.00 Build 0)  -->
<!DOCTYPE svg PUBLIC "-//W3C//DTD SVG 1.1//EN" "http://www.w3.org/Graphics/SVG/1.1/DTD/svg11.dtd">
<svg version="1.1" id="Layer_1" xmlns="http://www.w3.org/2000/svg" xmlns:xlink="http://www.w3.org/1999/xlink" x="0px" y="0px"
	 width="250px" height="250px" viewBox="0 0 250 250" enable-background="new 0 0 250 250" xml:space="preserve">
<g id="Layer_1_1_" display="none">
	<g display="inline">
		<path fill="#231F20" d="M192.391,31.146c22.996,15.725,34.77,52.352,37.77,62.931c-12.848,29.792-68.21,78.043-98.809,102.429
			c-15.458-38.193-35.986-71.888-51.195-94.309c-8.962-13.214-16.998-23.931-22.933-31.508
			C134.279,52.57,178.409,36.569,192.391,31.146 M193.335,19.998c0,0-50.056,21.107-154.028,44.554
			c0,0,57.677,65.976,87.552,148.134c0,0,98.476-74.688,113.809-118.021C240.668,94.665,227.335,38.665,193.335,19.998
			L193.335,19.998z"/>
	</g>
	<polyline display="inline" fill="none" stroke="#231F20" stroke-width="10" stroke-miterlimit="10" points="39.307,64.552 
		170.668,93.331 193.335,19.998 	"/>
	<path display="inline" fill="none" stroke="#231F20" stroke-width="10" stroke-linecap="round" stroke-miterlimit="10" d="M86,160
		c0,0-46,30-64,68"/>
	<path display="inline" fill="none" stroke="#231F20" stroke-width="10" stroke-linecap="round" stroke-miterlimit="10" d="M54,132
		c0,0-24,11-39,36"/>
	<path display="inline" fill="none" stroke="#231F20" stroke-width="10" stroke-linecap="round" stroke-miterlimit="10" d="M86,185
		c0,0-19,14-32,34"/>
</g>
<g id="Layer_2">
	<g>
		<g>
			<g>
				<path fill="#F2F2F2" d="M201.689,14.604l-25.23,81.626L38.22,65.945c15.851,19.518,61.771,79.665,87.848,151.375
					c0,0,105.072-79.689,121.433-125.926C247.5,91.393,234.506,36.826,201.689,14.604z"/>
			</g>
			<g>
				<path fill="#F2F2F2" d="M190.637,14.235C174.302,20.466,126.314,37.52,44.834,56.47l124.327,27.238L190.637,14.235z"/>
			</g>
		</g>
		<g>
			<path fill="#F2F2F2" d="M18.624,235.766l-8.882-4.207c19.574-41.326,67.992-73.23,70.044-74.568l5.369,8.23
				C84.676,165.534,36.996,196.977,18.624,235.766z"/>
		</g>
		<g>
			<path fill="#F2F2F2" d="M10.928,172.17L2.5,167.113c16.598-27.661,42.677-39.846,43.778-40.35l4.096,8.933l-2.048-4.468
				l2.054,4.465C50.138,135.807,25.906,147.206,10.928,172.17z"/>
		</g>
		<g>
			<path fill="#F2F2F2" d="M52.446,226.734l-8.24-5.354c14.194-21.838,34.492-36.924,35.35-37.556l5.832,7.91
				C85.191,191.88,65.64,206.439,52.446,226.734z"/>
		</g>
	</g>
</g>
</svg>
