<?xml version="1.0" encoding="utf-8"?>
<!-- Generator: Adobe Illustrator 15.1.0, SVG Export Plug-In . SVG Version: 6.00 Build 0)  -->
<!DOCTYPE svg PUBLIC "-//W3C//DTD SVG 1.1//EN" "http://www.w3.org/Graphics/SVG/1.1/DTD/svg11.dtd">
<svg version="1.1" xmlns="http://www.w3.org/2000/svg" xmlns:xlink="http://www.w3.org/1999/xlink" x="0px" y="0px" width="250px"
	 height="250px" viewBox="0 0 250 250" enable-background="new 0 0 250 250" xml:space="preserve">
<g id="Layer_1">
	<g>
		<path fill="#4D4D4D" d="M-78.01,6.046c-13.5-4.329-27.549-6.508-41.439-6.508c-44.213,0-86.865,22.057-105.445,67.035
			c-5.247,12.702-9.654,25.084-12.785,36.882c2.761,0.316,5.337,1.228,7.618,2.59c2.872-10.97,7.056-23.091,12.561-36.418
			c8.133-19.688,21.91-35.797,39.84-46.583c16.862-10.144,36.991-15.506,58.211-15.506c13.201,0,26.322,2.061,38.996,6.126
			c26.268,8.424,45.156,23.665,54.625,44.075c9.518,20.517,8.836,45.191-1.973,71.356c-8.961,21.694-28.973,38.125-53.119,49.041
			c1.385,2.251,2.316,4.802,2.674,7.537c26.201-11.742,47.992-29.686,57.84-53.523C4.01,73.041-21.541,24.156-78.01,6.046z"/>
		<path fill="#4D4D4D" d="M-228.052,130.419c1.51-2.258,2.394-4.968,2.394-7.882c0-7.84-6.378-14.218-14.219-14.218
			c-7.84,0-14.218,6.378-14.218,14.218c0,2.914,0.884,5.624,2.394,7.882c3.265-2.559,7.364-4.1,11.824-4.1
			C-235.417,126.319-231.317,127.86-228.052,130.419z"/>
		<path fill="#4D4D4D" d="M-97.285,173.944c-5.365,0-10.043,2.988-12.463,7.387c5.932,3.274,9.963,9.59,9.963,16.832
			c0,1.343-0.141,2.652-0.404,3.918c0.938,0.195,1.908,0.3,2.904,0.3c7.84,0,14.219-6.379,14.219-14.219
			S-89.445,173.944-97.285,173.944z"/>
		<path fill="#4D4D4D" d="M-119.004,183.945c-4.854,0-9.143,2.448-11.709,6.171c2.628,3.287,4.21,7.445,4.21,11.972
			c0,2.528-0.503,4.938-1.395,7.151c2.438,1.962,5.529,3.143,8.894,3.143c7.84,0,14.219-6.379,14.219-14.219
			S-111.164,183.945-119.004,183.945z"/>
		<path fill="#4D4D4D" d="M-145.722,187.87c-3.737,0-7.132,1.46-9.672,3.826c1.38,2.649,2.172,5.652,2.172,8.841
			c0,3.986-1.221,7.692-3.308,10.766c2.61,3.057,6.482,5.004,10.807,5.004c7.84,0,14.219-6.379,14.219-14.219
			S-137.882,187.87-145.722,187.87z"/>
		<path fill="#4D4D4D" d="M-232.159,145.882c2.255,0,4.412,0.411,6.424,1.128c0.05-0.484,0.077-0.976,0.077-1.473
			c0-7.84-6.378-14.218-14.219-14.218c-7.84,0-14.218,6.378-14.218,14.218c0,4.272,1.903,8.102,4.896,10.71
			C-245.991,150.097-239.563,145.882-232.159,145.882z"/>
		<path fill="#4D4D4D" d="M-219.3,162.601c0.383,0,0.757,0.035,1.134,0.058c-1.163-6.679-6.987-11.776-13.994-11.776
			c-7.84,0-14.218,6.378-14.218,14.218c0,5.705,3.385,10.623,8.245,12.886C-236.35,169.219-228.584,162.601-219.3,162.601z"/>
		<g>
			<path fill="#4D4D4D" d="M-189.869,176.553l-61.29,28.706l13.465,44.279l50.254-11.864L-189.869,176.553z M-203.15,229.507
				l-23.66,5.586l-4.567,1.078l-1.365-4.489l-6.34-20.848l-1.261-4.146l3.924-1.838l28.856-13.515l6.818-3.192l0.299,7.522
				l1.144,28.776l0.164,4.117L-203.15,229.507z"/>
			<polygon fill="#4D4D4D" points="-234.299,209.379 -227.959,230.227 -204.299,224.641 -205.443,195.864 			"/>
		</g>
		<path fill="#4D4D4D" d="M-172.44,186.319c-4.9,0-9.229,2.492-11.787,6.274l0.667,16.778c2.607,3.274,6.618,5.384,11.12,5.384
			c7.84,0,14.219-6.379,14.219-14.219S-164.6,186.319-172.44,186.319z"/>
		<path fill="#4D4D4D" d="M-219.3,167.601c-7.84,0-14.218,6.378-14.218,14.218c0,3.13,1.029,6.018,2.749,8.369l25.245-11.824
			C-207.073,172.19-212.653,167.601-219.3,167.601z"/>
	</g>
</g>
<g id="Layer_2" display="none">
	<g display="inline">
		<polygon fill="#4D4D4D" points="334.5,136.447 362.651,65.938 306.349,65.938 		"/>
		<polygon fill="#4D4D4D" points="375.727,33.188 338.13,33.188 365.388,59.084 		"/>
		<polygon fill="#4D4D4D" points="395.465,60.938 380.051,35.845 370.031,60.938 		"/>
		<polygon fill="#4D4D4D" points="334.5,36.637 308.92,60.938 360.08,60.938 		"/>
		<polygon fill="#4D4D4D" points="288.949,35.845 273.535,60.938 298.969,60.938 		"/>
		<polygon fill="#4D4D4D" points="330.87,33.188 293.273,33.188 303.612,59.084 		"/>
		<rect x="334.5" y="143.188" fill="#4D4D4D" width="0" height="0"/>
		<polygon fill="#4D4D4D" points="273.959,65.938 329.012,136.186 300.965,65.938 		"/>
		<polygon fill="#4D4D4D" points="339.988,136.186 395.041,65.938 368.035,65.938 		"/>
		<polygon fill="#FFFFFF" points="395.465,60.938 370.031,60.938 368.035,65.938 395.041,65.938 397,65.938 397,60.938 		"/>
		<polygon fill="#FFFFFF" points="308.92,60.938 305.608,64.084 306.349,65.938 362.651,65.938 363.392,64.084 360.08,60.938 		"/>
		<polygon fill="#FFFFFF" points="298.969,60.938 273.535,60.938 272,60.938 272,65.938 273.959,65.938 300.965,65.938 		"/>
		<polygon fill="#FFFFFF" points="332.179,142.262 334.5,136.447 306.349,65.938 305.608,64.084 304.381,65.251 300.938,61.626 
			303.612,59.084 293.273,33.188 292.903,32.262 288.259,34.115 288.949,35.845 298.969,60.938 300.965,65.938 329.012,136.186 
			332.178,144.115 334.5,143.188 334.5,143.188 		"/>
		<polygon fill="#FFFFFF" points="370.031,60.938 380.051,35.845 380.741,34.115 376.097,32.262 375.727,33.188 365.388,59.084 
			368.063,61.626 364.619,65.251 363.392,64.084 362.651,65.938 334.5,136.447 332.179,142.262 334.5,143.188 334.5,143.188 
			336.822,144.115 339.988,136.186 368.035,65.938 		"/>
		<polygon fill="#FFFFFF" points="300.938,61.626 304.381,65.251 305.608,64.084 308.92,60.938 334.5,36.637 332.778,35.001 
			334.5,33.188 332.778,31.376 330.87,33.188 303.612,59.084 		"/>
		<polygon fill="#FFFFFF" points="334.5,36.637 360.08,60.938 363.392,64.084 364.619,65.251 368.063,61.626 365.388,59.084 
			338.13,33.188 336.222,31.376 334.5,33.188 332.778,35.001 		"/>
	</g>
	<g display="inline">
		<g>
			<g>
				<path fill="#333333" d="M125,155.201c22.689,0,41.149,18.46,41.149,41.149S147.689,237.5,125,237.5
					c-22.69,0-41.149-18.46-41.149-41.149S102.31,155.201,125,155.201 M125,145.201c-28.249,0-51.149,22.9-51.149,51.149
					S96.751,247.5,125,247.5s51.149-22.9,51.149-51.149S153.249,145.201,125,145.201L125,145.201z"/>
			</g>
			<g>
				<polygon fill="#333333" points="125,153.729 101.21,129.938 108.281,122.867 125,139.586 141.72,122.867 148.79,129.938 				"/>
			</g>
		</g>
		<g>
			<polygon fill="#333333" points="125,126.512 158.81,41.832 91.191,41.832 			"/>
			<polygon fill="#333333" points="174.513,2.5 129.359,2.5 162.096,33.601 			"/>
			<polygon fill="#333333" points="198.218,35.827 179.706,5.69 167.672,35.827 			"/>
			<polygon fill="#333333" points="125,6.641 94.279,35.827 155.721,35.827 			"/>
			<polygon fill="#333333" points="70.294,5.69 51.782,35.827 82.328,35.827 			"/>
			<polygon fill="#333333" points="120.641,2.5 75.488,2.5 87.904,33.601 			"/>
			<polygon fill="#333333" points="52.292,41.832 118.409,126.197 84.725,41.832 			"/>
			<polygon fill="#333333" points="131.592,126.197 197.709,41.832 165.275,41.832 			"/>
		</g>
	</g>
</g>
<g id="Layer_3">
	<g>
		<g>
			<g>
				<path fill="#333333" d="M125,132.34c20.32,0,36.853,16.532,36.853,36.852c0,20.32-16.532,36.853-36.853,36.853
					s-36.853-16.532-36.853-36.853C88.147,148.872,104.68,132.34,125,132.34 M125,123.384c-25.3,0-45.809,20.509-45.809,45.808
					C79.191,194.491,99.7,215,125,215c25.299,0,45.809-20.509,45.809-45.809C170.809,143.893,150.299,123.384,125,123.384
					L125,123.384z"/>
			</g>
			<g>
				<polygon fill="#333333" points="125,131.021 103.694,109.714 110.027,103.381 125,118.355 139.974,103.381 146.306,109.714 				
					"/>
			</g>
		</g>
		<g>
			<polygon fill="#333333" points="125,106.646 144.533,57.724 105.467,57.724 			"/>
			<polygon fill="#333333" points="153.605,35 127.518,35 146.432,52.968 			"/>
			<polygon fill="#333333" points="167.3,54.254 156.605,36.843 149.652,54.254 			"/>
			<polygon fill="#333333" points="125,37.393 107.251,54.254 142.748,54.254 			"/>
			<polygon fill="#333333" points="93.394,36.843 82.699,54.254 100.346,54.254 			"/>
			<polygon fill="#333333" points="122.48,35 96.395,35 103.568,52.968 			"/>
			<polygon fill="#333333" points="82.993,57.724 121.191,106.464 101.731,57.724 			"/>
			<polygon fill="#333333" points="128.808,106.464 167.006,57.724 148.269,57.724 			"/>
		</g>
	</g>
</g>
</svg>
