<?xml version="1.0" encoding="utf-8"?>
<!-- Generator: Adobe Illustrator 15.1.0, SVG Export Plug-In . SVG Version: 6.00 Build 0)  -->
<!DOCTYPE svg PUBLIC "-//W3C//DTD SVG 1.1//EN" "http://www.w3.org/Graphics/SVG/1.1/DTD/svg11.dtd">
<svg version="1.1" xmlns="http://www.w3.org/2000/svg" xmlns:xlink="http://www.w3.org/1999/xlink" x="0px" y="0px" width="250px"
	 height="250px" viewBox="0 0 250 250" enable-background="new 0 0 250 250" xml:space="preserve">
<g id="Layer_1">
	<g>
		<path fill="#4D4D4D" d="M-175.009-4.954c-13.5-4.329-27.55-6.508-41.44-6.508c-44.212,0-86.864,22.057-105.444,67.035
			c-5.247,12.702-9.654,25.084-12.785,36.882c2.761,0.316,5.337,1.228,7.618,2.59c2.872-10.97,7.056-23.091,12.561-36.418
			c8.133-19.688,21.91-35.797,39.84-46.583C-257.798,1.9-237.669-3.462-216.45-3.462c13.201,0,26.322,2.061,38.997,6.126
			c26.268,8.424,45.156,23.665,54.624,44.075c9.519,20.517,8.836,45.191-1.972,71.356c-8.962,21.694-28.974,38.125-53.12,49.041
			c1.385,2.251,2.317,4.802,2.674,7.537c26.201-11.742,47.993-29.686,57.84-53.523C-92.99,62.041-118.541,13.156-175.009-4.954z"/>
		<path fill="#4D4D4D" d="M-325.052,119.419c1.51-2.258,2.394-4.968,2.394-7.882c0-7.84-6.378-14.218-14.219-14.218
			c-7.84,0-14.218,6.378-14.218,14.218c0,2.914,0.884,5.624,2.394,7.882c3.265-2.559,7.364-4.1,11.824-4.1
			C-332.417,115.319-328.317,116.86-325.052,119.419z"/>
		<path fill="#4D4D4D" d="M-194.286,162.944c-5.365,0-10.042,2.988-12.463,7.387c5.933,3.274,9.963,9.59,9.963,16.832
			c0,1.343-0.141,2.652-0.403,3.918c0.938,0.195,1.908,0.3,2.903,0.3c7.84,0,14.219-6.379,14.219-14.219
			S-186.446,162.944-194.286,162.944z"/>
		<path fill="#4D4D4D" d="M-216.004,172.945c-4.854,0-9.143,2.448-11.709,6.171c2.628,3.287,4.21,7.445,4.21,11.972
			c0,2.528-0.503,4.938-1.395,7.151c2.438,1.962,5.528,3.143,8.894,3.143c7.84,0,14.219-6.379,14.219-14.219
			S-208.165,172.945-216.004,172.945z"/>
		<path fill="#4D4D4D" d="M-242.722,176.87c-3.737,0-7.132,1.46-9.672,3.826c1.38,2.649,2.172,5.652,2.172,8.841
			c0,3.986-1.221,7.692-3.308,10.766c2.61,3.057,6.482,5.004,10.807,5.004c7.84,0,14.219-6.379,14.219-14.219
			S-234.882,176.87-242.722,176.87z"/>
		<path fill="#4D4D4D" d="M-329.159,134.882c2.255,0,4.412,0.411,6.424,1.128c0.05-0.484,0.077-0.976,0.077-1.473
			c0-7.84-6.378-14.218-14.219-14.218c-7.84,0-14.218,6.378-14.218,14.218c0,4.272,1.903,8.102,4.896,10.71
			C-342.991,139.097-336.563,134.882-329.159,134.882z"/>
		<path fill="#4D4D4D" d="M-316.3,151.601c0.383,0,0.757,0.035,1.134,0.058c-1.163-6.679-6.987-11.776-13.994-11.776
			c-7.84,0-14.218,6.378-14.218,14.218c0,5.705,3.385,10.623,8.245,12.886C-333.35,158.219-325.584,151.601-316.3,151.601z"/>
		<g>
			<path fill="#4D4D4D" d="M-286.869,165.553l-61.29,28.706l13.465,44.279l50.254-11.864L-286.869,165.553z M-300.15,218.507
				l-23.66,5.586l-4.567,1.078l-1.365-4.489l-6.34-20.848l-1.261-4.146l3.924-1.838l28.856-13.515l6.818-3.192l0.299,7.522
				l1.144,28.776l0.164,4.117L-300.15,218.507z"/>
			<polygon fill="#4D4D4D" points="-331.299,198.379 -324.959,219.227 -301.299,213.641 -302.443,184.864 			"/>
		</g>
		<path fill="#4D4D4D" d="M-269.44,175.319c-4.9,0-9.229,2.492-11.787,6.274l0.667,16.778c2.607,3.274,6.618,5.384,11.12,5.384
			c7.84,0,14.219-6.379,14.219-14.219S-261.6,175.319-269.44,175.319z"/>
		<path fill="#4D4D4D" d="M-316.3,156.601c-7.84,0-14.218,6.378-14.218,14.218c0,3.13,1.029,6.018,2.749,8.369l25.245-11.824
			C-304.073,161.19-309.653,156.601-316.3,156.601z"/>
	</g>
</g>
<g id="Layer_2" display="none">
	<g display="inline">
		<path fill="#4D4D4D" d="M130.707,29.952c20.999,0,40.421,5.804,56.166,16.783c16.334,11.39,27.781,27.912,33.105,47.779
			c6.348,23.691,2.164,43.148-12.79,59.484c-13.459,14.702-35.915,26.585-64.94,34.362c-16.027,4.294-30.763,6.472-43.8,6.472
			c-36.31,0-58.318-16.265-67.284-49.725c-6.712-25.048-3.411-49.08,9.547-69.498c12.636-19.912,33.79-34.681,59.564-41.587
			C110.356,31.322,120.595,29.952,130.707,29.952 M130.707,19.952c-10.854,0-21.963,1.449-33.021,4.412
			c-57.474,15.4-91.583,65.858-76.182,123.333c11.05,41.239,40.154,57.137,76.943,57.137c14.483,0,30.154-2.462,46.388-6.813
			c57.474-15.4,100.201-48.62,84.802-106.094C217.199,45.509,176.268,19.952,130.707,19.952L130.707,19.952z"/>
	</g>
</g>
<g id="Layer_3" display="none">
	<g display="inline">
		<path fill="#4D4D4D" d="M195,56.452c-6.893,0-12.5-5.607-12.5-12.5s5.607-12.5,12.5-12.5s12.5,5.607,12.5,12.5
			S201.893,56.452,195,56.452z"/>
		<path fill="#FFFFFF" d="M195,33.952c5.522,0,10,4.477,10,10s-4.478,10-10,10s-10-4.477-10-10S189.478,33.952,195,33.952
			 M195,28.952c-8.271,0-15,6.729-15,15s6.729,15,15,15s15-6.729,15-15S203.271,28.952,195,28.952L195,28.952z"/>
	</g>
	<g display="inline">
		<path fill="#4D4D4D" d="M153.5,39c-6.893,0-12.5-5.607-12.5-12.5S146.607,14,153.5,14S166,19.607,166,26.5S160.393,39,153.5,39z"
			/>
		<path fill="#FFFFFF" d="M153.5,16.5c5.522,0,10,4.477,10,10s-4.478,10-10,10s-10-4.477-10-10S147.978,16.5,153.5,16.5 M153.5,11.5
			c-8.271,0-15,6.729-15,15s6.729,15,15,15s15-6.729,15-15S161.771,11.5,153.5,11.5L153.5,11.5z"/>
	</g>
	<g display="inline">
		<path fill="#4D4D4D" d="M208.5,69.5c-6.893,0-12.5-5.607-12.5-12.5s5.607-12.5,12.5-12.5S221,50.107,221,57
			S215.393,69.5,208.5,69.5z"/>
		<path fill="#FFFFFF" d="M208.5,47c5.522,0,10,4.477,10,10s-4.478,10-10,10s-10-4.477-10-10S202.978,47,208.5,47 M208.5,42
			c-8.271,0-15,6.729-15,15s6.729,15,15,15s15-6.729,15-15S216.771,42,208.5,42L208.5,42z"/>
	</g>
	<g display="inline">
		<path fill="#4D4D4D" d="M219.667,84.667c-6.893,0-12.5-5.607-12.5-12.5s5.607-12.5,12.5-12.5s12.5,5.607,12.5,12.5
			S226.56,84.667,219.667,84.667z"/>
		<path fill="#FFFFFF" d="M219.667,62.167c5.522,0,10,4.477,10,10s-4.478,10-10,10s-10-4.477-10-10S214.145,62.167,219.667,62.167
			 M219.667,57.167c-8.271,0-15,6.729-15,15s6.729,15,15,15s15-6.729,15-15S227.938,57.167,219.667,57.167L219.667,57.167z"/>
	</g>
	<g display="inline">
		<path fill="#4D4D4D" d="M227.334,101.833c-6.893,0-12.5-5.607-12.5-12.5s5.607-12.5,12.5-12.5s12.5,5.607,12.5,12.5
			S234.227,101.833,227.334,101.833z"/>
		<path fill="#FFFFFF" d="M227.334,79.333c5.522,0,10,4.477,10,10s-4.478,10-10,10s-10-4.477-10-10S221.812,79.333,227.334,79.333
			 M227.334,74.333c-8.271,0-15,6.729-15,15s6.729,15,15,15s15-6.729,15-15S235.605,74.333,227.334,74.333L227.334,74.333z"/>
	</g>
	<g display="inline">
		<path fill="#4D4D4D" d="M232,120.167c-6.893,0-12.5-5.607-12.5-12.5s5.607-12.5,12.5-12.5s12.5,5.607,12.5,12.5
			S238.893,120.167,232,120.167z"/>
		<path fill="#FFFFFF" d="M232,97.667c5.522,0,10,4.477,10,10s-4.478,10-10,10s-10-4.477-10-10S226.478,97.667,232,97.667
			 M232,92.667c-8.271,0-15,6.729-15,15s6.729,15,15,15s15-6.729,15-15S240.271,92.667,232,92.667L232,92.667z"/>
	</g>
	<g display="inline">
		<path fill="#4D4D4D" d="M232.807,138.893c-6.893,0-12.5-5.607-12.5-12.5s5.607-12.5,12.5-12.5s12.5,5.607,12.5,12.5
			S239.699,138.893,232.807,138.893z"/>
		<path fill="#FFFFFF" d="M232.807,116.393c5.522,0,10,4.477,10,10c0,5.522-4.478,10-10,10s-10-4.478-10-10
			C222.807,120.87,227.284,116.393,232.807,116.393 M232.807,111.393c-8.271,0-15,6.729-15,15c0,8.271,6.729,15,15,15
			s15-6.729,15-15C247.807,118.122,241.078,111.393,232.807,111.393L232.807,111.393z"/>
	</g>
	<g display="inline">
		<path fill="#4D4D4D" d="M136.833,36.452c-6.893,0-12.5-5.607-12.5-12.5s5.607-12.5,12.5-12.5s12.5,5.607,12.5,12.5
			S143.726,36.452,136.833,36.452z"/>
		<path fill="#FFFFFF" d="M136.833,13.952c5.522,0,10,4.477,10,10s-4.478,10-10,10s-10-4.477-10-10S131.311,13.952,136.833,13.952
			 M136.833,8.952c-8.271,0-15,6.729-15,15s6.729,15,15,15c8.271,0,15-6.729,15-15S145.104,8.952,136.833,8.952L136.833,8.952z"/>
	</g>
	<g display="inline">
		<path fill="#4D4D4D" d="M119.167,37.168c-6.893,0-12.5-5.607-12.5-12.5s5.607-12.5,12.5-12.5c6.892,0,12.5,5.607,12.5,12.5
			S126.059,37.168,119.167,37.168z"/>
		<path fill="#FFFFFF" d="M119.167,14.668c5.522,0,10,4.477,10,10s-4.477,10-10,10s-10-4.477-10-10S113.644,14.668,119.167,14.668
			 M119.167,9.668c-8.271,0-15,6.729-15,15s6.729,15,15,15s15-6.729,15-15S127.438,9.668,119.167,9.668L119.167,9.668z"/>
	</g>
	<g display="inline">
		<path fill="#4D4D4D" d="M101.667,40.168c-6.893,0-12.5-5.607-12.5-12.5s5.607-12.5,12.5-12.5s12.5,5.607,12.5,12.5
			S108.559,40.168,101.667,40.168z"/>
		<path fill="#FFFFFF" d="M101.667,17.668c5.522,0,10,4.477,10,10s-4.478,10-10,10s-10-4.477-10-10S96.144,17.668,101.667,17.668
			 M101.667,12.668c-8.271,0-15,6.729-15,15s6.729,15,15,15c8.271,0,15-6.729,15-15S109.938,12.668,101.667,12.668L101.667,12.668z"
			/>
	</g>
	<g display="inline">
		<path fill="#4D4D4D" d="M84.167,44.834c-6.893,0-12.5-5.607-12.5-12.5s5.607-12.5,12.5-12.5s12.5,5.607,12.5,12.5
			S91.059,44.834,84.167,44.834z"/>
		<path fill="#FFFFFF" d="M84.167,22.334c5.522,0,10,4.477,10,10s-4.478,10-10,10s-10-4.477-10-10S78.644,22.334,84.167,22.334
			 M84.167,17.334c-8.271,0-15,6.729-15,15s6.729,15,15,15c8.271,0,15-6.729,15-15S92.438,17.334,84.167,17.334L84.167,17.334z"/>
	</g>
	<g display="inline">
		<path fill="#4D4D4D" d="M68.333,53.168c-6.893,0-12.5-5.607-12.5-12.5s5.607-12.5,12.5-12.5s12.5,5.607,12.5,12.5
			S75.226,53.168,68.333,53.168z"/>
		<path fill="#FFFFFF" d="M68.333,30.668c5.522,0,10,4.477,10,10s-4.478,10-10,10s-10-4.477-10-10S62.811,30.668,68.333,30.668
			 M68.333,25.668c-8.271,0-15,6.729-15,15s6.729,15,15,15c8.271,0,15-6.729,15-15S76.605,25.668,68.333,25.668L68.333,25.668z"/>
	</g>
	<g display="inline">
		<path fill="#4D4D4D" d="M225.834,165.452c-9.649,0-17.5-7.851-17.5-17.5s7.851-17.5,17.5-17.5s17.5,7.851,17.5,17.5
			S235.483,165.452,225.834,165.452z"/>
		<path fill="#FFFFFF" d="M225.834,132.952c8.283,0,15,6.716,15,15s-6.717,15-15,15s-15-6.716-15-15
			S217.551,132.952,225.834,132.952 M225.834,127.952c-11.028,0-20,8.972-20,20s8.972,20,20,20s20-8.972,20-20
			S236.862,127.952,225.834,127.952L225.834,127.952z"/>
	</g>
	<g display="inline">
		<path fill="#4D4D4D" d="M209,187.333c-9.649,0-17.5-7.851-17.5-17.5s7.851-17.5,17.5-17.5s17.5,7.851,17.5,17.5
			S218.649,187.333,209,187.333z"/>
		<path fill="#FFFFFF" d="M209,154.833c8.283,0,15,6.716,15,15s-6.717,15-15,15s-15-6.716-15-15S200.717,154.833,209,154.833
			 M209,149.833c-11.028,0-20,8.972-20,20s8.972,20,20,20s20-8.972,20-20S220.028,149.833,209,149.833L209,149.833z"/>
	</g>
	<g display="inline">
		<path fill="#4D4D4D" d="M186.667,203.168c-9.649,0-17.5-7.851-17.5-17.5s7.851-17.5,17.5-17.5s17.5,7.851,17.5,17.5
			S196.316,203.168,186.667,203.168z"/>
		<path fill="#FFFFFF" d="M186.667,170.668c8.283,0,15,6.716,15,15s-6.717,15-15,15s-15-6.716-15-15
			S178.384,170.668,186.667,170.668 M186.667,165.668c-11.028,0-20,8.972-20,20s8.972,20,20,20s20-8.972,20-20
			S197.695,165.668,186.667,165.668L186.667,165.668z"/>
	</g>
	<g display="inline">
		<path fill="#4D4D4D" d="M162,214.501c-9.649,0-17.5-7.851-17.5-17.5s7.851-17.5,17.5-17.5s17.5,7.851,17.5,17.5
			S171.649,214.501,162,214.501z"/>
		<path fill="#FFFFFF" d="M162,182.001c8.283,0,15,6.716,15,15s-6.717,15-15,15s-15-6.716-15-15S153.717,182.001,162,182.001
			 M162,177.001c-11.028,0-20,8.972-20,20s8.972,20,20,20s20-8.972,20-20S173.028,177.001,162,177.001L162,177.001z"/>
	</g>
	<g display="inline">
		<path fill="#4D4D4D" d="M135.833,221.452c-9.649,0-17.5-7.851-17.5-17.5s7.851-17.5,17.5-17.5s17.5,7.851,17.5,17.5
			S145.482,221.452,135.833,221.452z"/>
		<path fill="#FFFFFF" d="M135.833,188.952c8.283,0,15,6.716,15,15s-6.717,15-15,15s-15-6.716-15-15S127.55,188.952,135.833,188.952
			 M135.833,183.952c-11.028,0-20,8.972-20,20s8.972,20,20,20s20-8.972,20-20S146.861,183.952,135.833,183.952L135.833,183.952z"/>
	</g>
	<g display="inline">
		<path fill="#4D4D4D" d="M110,226.333c-9.649,0-17.5-7.851-17.5-17.5s7.851-17.5,17.5-17.5s17.5,7.851,17.5,17.5
			S119.649,226.333,110,226.333z"/>
		<path fill="#FFFFFF" d="M110,193.833c8.283,0,15,6.716,15,15s-6.717,15-15,15s-15-6.716-15-15S101.717,193.833,110,193.833
			 M110,188.833c-11.028,0-20,8.972-20,20s8.972,20,20,20c11.028,0,20-8.972,20-20S121.028,188.833,110,188.833L110,188.833z"/>
	</g>
	<g display="inline">
		<path fill="#4D4D4D" d="M49.333,71.452c-9.649,0-17.5-7.851-17.5-17.5s7.851-17.5,17.5-17.5s17.5,7.851,17.5,17.5
			S58.983,71.452,49.333,71.452z"/>
		<path fill="#FFFFFF" d="M49.333,38.952c8.283,0,15,6.716,15,15s-6.717,15-15,15s-15-6.716-15-15S41.05,38.952,49.333,38.952
			 M49.333,33.952c-11.028,0-20,8.972-20,20s8.972,20,20,20s20-8.972,20-20S60.361,33.952,49.333,33.952L49.333,33.952z"/>
	</g>
	<g display="inline">
		<path fill="#4D4D4D" d="M32,93.001c-9.649,0-17.5-7.851-17.5-17.5s7.851-17.5,17.5-17.5s17.5,7.851,17.5,17.5
			S41.649,93.001,32,93.001z"/>
		<path fill="#FFFFFF" d="M32,60.501c8.283,0,15,6.716,15,15s-6.717,15-15,15s-15-6.716-15-15S23.717,60.501,32,60.501 M32,55.501
			c-11.028,0-20,8.972-20,20s8.972,20,20,20s20-8.972,20-20S43.028,55.501,32,55.501L32,55.501z"/>
	</g>
	<g display="inline">
		<path fill="#4D4D4D" d="M20.667,117.834c-9.649,0-17.5-7.851-17.5-17.5s7.851-17.5,17.5-17.5s17.5,7.851,17.5,17.5
			S30.316,117.834,20.667,117.834z"/>
		<path fill="#FFFFFF" d="M20.667,85.334c8.283,0,15,6.716,15,15s-6.717,15-15,15s-15-6.716-15-15S12.383,85.334,20.667,85.334
			 M20.667,80.334c-11.028,0-20,8.972-20,20s8.972,20,20,20s20-8.972,20-20S31.694,80.334,20.667,80.334L20.667,80.334z"/>
	</g>
	<g display="inline">
		<path fill="#4D4D4D" d="M17.807,145c-9.649,0-17.5-7.851-17.5-17.5s7.851-17.5,17.5-17.5s17.5,7.851,17.5,17.5
			S27.456,145,17.807,145z"/>
		<path fill="#FFFFFF" d="M17.807,112.5c8.283,0,15,6.716,15,15s-6.717,15-15,15s-15-6.716-15-15S9.523,112.5,17.807,112.5
			 M17.807,107.5c-11.028,0-20,8.972-20,20s8.972,20,20,20s20-8.972,20-20S28.834,107.5,17.807,107.5L17.807,107.5z"/>
	</g>
	<g display="inline">
		<path fill="#4D4D4D" d="M22.667,172.333c-9.649,0-17.5-7.851-17.5-17.5s7.851-17.5,17.5-17.5s17.5,7.851,17.5,17.5
			S32.316,172.333,22.667,172.333z"/>
		<path fill="#FFFFFF" d="M22.667,139.833c8.283,0,15,6.716,15,15s-6.717,15-15,15s-15-6.716-15-15S14.383,139.833,22.667,139.833
			 M22.667,134.833c-11.028,0-20,8.972-20,20s8.972,20,20,20s20-8.972,20-20S33.694,134.833,22.667,134.833L22.667,134.833z"/>
	</g>
	<g display="inline">
		<path fill="#4D4D4D" d="M34.333,197.333c-9.649,0-17.5-7.851-17.5-17.5s7.851-17.5,17.5-17.5s17.5,7.851,17.5,17.5
			S43.983,197.333,34.333,197.333z"/>
		<path fill="#FFFFFF" d="M34.333,164.833c8.283,0,15,6.716,15,15s-6.717,15-15,15s-15-6.716-15-15S26.05,164.833,34.333,164.833
			 M34.333,159.833c-11.028,0-20,8.972-20,20s8.972,20,20,20s20-8.972,20-20S45.361,159.833,34.333,159.833L34.333,159.833z"/>
	</g>
	<g display="inline">
		<path fill="#4D4D4D" d="M67.667,241.452c-20.678,0-37.5-16.822-37.5-37.5s16.822-37.5,37.5-37.5s37.5,16.822,37.5,37.5
			S88.344,241.452,67.667,241.452z"/>
		<path fill="#FFFFFF" d="M67.667,168.952c19.33,0,35,15.67,35,35s-15.67,35-35,35s-35-15.67-35-35S48.337,168.952,67.667,168.952
			 M67.667,163.952c-22.056,0-40,17.944-40,40s17.944,40,40,40s40-17.944,40-40S89.723,163.952,67.667,163.952L67.667,163.952z"/>
	</g>
</g>
<g id="Layer_4">
	<g>
		<path fill="#333333" d="M168.382,30.239c5.266,1.908,10.308,4.256,15.079,7.036c0.357-3.672,1.958-6.973,4.364-9.458
			c-5.144-2.937-10.56-5.429-16.192-7.457c0.001,0.083,0.013,0.164,0.013,0.247C171.646,24.239,170.419,27.579,168.382,30.239z"/>
		<path fill="#333333" d="M208.78,37.276c-0.736-5.028-4.964-8.887-10.083-8.887c-5.637,0-10.208,4.676-10.208,10.444
			c0,5.355,3.94,9.762,9.016,10.367C198.72,43.353,203.137,38.716,208.78,37.276z"/>
		<path fill="#333333" d="M166.541,20.606c0-5.769-4.571-10.445-10.208-10.445c-1.201,0-2.347,0.224-3.415,0.612
			c1.087,2.152,1.713,4.586,1.713,7.171c0,4.284-1.692,8.17-4.425,11c1.708,1.315,3.823,2.105,6.127,2.105
			C161.97,31.05,166.541,26.374,166.541,20.606z"/>
		<path fill="#333333" d="M222.675,52.698c0.002-0.08,0.013-0.157,0.013-0.237c0-5.769-4.571-10.444-10.209-10.444
			c-5.637,0-10.208,4.676-10.208,10.444c0,4.77,3.128,8.785,7.398,10.035C211.786,57.09,216.76,53.171,222.675,52.698z"/>
		<path fill="#333333" d="M231.705,70.565c0.712,0,1.407,0.067,2.093,0.164c0.183-0.78,0.288-1.591,0.288-2.427
			c0-5.769-4.57-10.445-10.207-10.445c-5.639,0-10.209,4.676-10.209,10.445c0,3.964,2.158,7.412,5.338,9.182
			C221.763,73.313,226.425,70.565,231.705,70.565z"/>
		<path fill="#333333" d="M236.469,89.713c1.595,0,3.133,0.252,4.579,0.718c0.553-1.286,0.865-2.705,0.865-4.199
			c0-5.769-4.571-10.445-10.208-10.445c-5.638,0-10.209,4.676-10.209,10.445c0,3.367,1.565,6.353,3.982,8.263
			C228.264,91.552,232.158,89.713,236.469,89.713z"/>
		<path fill="#333333" d="M237.291,109.271c2.751,0,5.327,0.756,7.56,2.06c1.148-1.689,1.826-3.738,1.826-5.951
			c0-5.768-4.57-10.444-10.208-10.444c-5.639,0-10.209,4.676-10.209,10.444c0,2.535,0.883,4.857,2.351,6.666
			C231.08,110.3,234.07,109.271,237.291,109.271z"/>
		<path fill="#333333" d="M247.5,124.938c0-5.768-4.57-10.444-10.209-10.444c-5.637,0-10.207,4.676-10.207,10.444
			c0,0.639,0.063,1.262,0.172,1.868c0.955-0.142,1.925-0.238,2.918-0.238c5.51,0,10.508,2.254,14.186,5.896
			C246.292,130.563,247.5,127.896,247.5,124.938z"/>
		<path fill="#333333" d="M149.526,17.944c0-5.769-4.57-10.444-10.208-10.444c-2.146,0-4.136,0.682-5.779,1.839
			c1.911,2.614,3.058,5.845,3.058,9.353c0,3.053-0.872,5.895-2.354,8.306c1.497,0.88,3.226,1.391,5.075,1.391
			C144.956,28.389,149.526,23.713,149.526,17.944z"/>
		<path fill="#333333" d="M131.491,18.692c0-5.768-4.569-10.444-10.208-10.444c-2.64,0-5.04,1.035-6.852,2.719
			c2.656,2.819,4.3,6.644,4.3,10.859c0,2.32-0.509,4.516-1.397,6.499c1.215,0.522,2.549,0.812,3.949,0.812
			C126.922,29.136,131.491,24.461,131.491,18.692z"/>
		<path fill="#333333" d="M113.627,21.826c0-5.769-4.571-10.445-10.208-10.445c-3.085,0-5.844,1.406-7.716,3.619
			c3.159,2.872,5.164,7.046,5.164,11.7c0,1.742-0.292,3.414-0.807,4.98c1.053,0.375,2.181,0.59,3.359,0.59
			C109.057,32.27,113.627,27.594,113.627,21.826z"/>
		<path fill="#333333" d="M95.763,26.699c0-5.768-4.571-10.444-10.208-10.444c-3.831,0-7.165,2.162-8.911,5.355
			c4.794,2.65,8.06,7.838,8.06,13.793c0,0.572-0.034,1.136-0.093,1.691c0.311,0.029,0.625,0.049,0.944,0.049
			C91.192,37.144,95.763,32.468,95.763,26.699z"/>
		<path fill="#333333" d="M79.601,35.403c0-5.769-4.571-10.445-10.208-10.445c-4.151,0-7.716,2.54-9.313,6.179
			c5.223,3.052,8.995,8.388,10.028,14.673C75.41,45.433,79.601,40.924,79.601,35.403z"/>
		<path fill="#333333" d="M232.086,162.987c7.551-0.966,13.4-7.543,13.4-15.531c0-8.652-6.857-15.668-15.313-15.668
			c-8.456,0-15.313,7.016-15.313,15.668c0,0.702,0.061,1.39,0.148,2.069C222.864,150.318,229.405,155.693,232.086,162.987z"/>
		<path fill="#333333" d="M210.554,185.758c0.794,0.131,1.604,0.219,2.436,0.219c8.456,0,15.313-7.016,15.313-15.667
			c0-8.653-6.856-15.668-15.313-15.668c-7.526,0-13.773,5.563-15.058,12.887C205.047,170.524,210.135,177.517,210.554,185.758z"/>
		<path fill="#333333" d="M185.427,198.685c0,1.007-0.094,1.99-0.229,2.96c1.567,0.555,3.243,0.87,4.994,0.87
			c8.455,0,15.313-7.015,15.313-15.667s-6.857-15.666-15.313-15.666c-6.466,0-11.983,4.105-14.229,9.903
			C181.642,184.797,185.427,191.29,185.427,198.685z"/>
		<path fill="#333333" d="M158.714,205.944c0,2.271-0.367,4.453-1.025,6.502c2.175,1.214,4.669,1.904,7.321,1.904
			c8.456,0,15.313-7.014,15.313-15.666s-6.856-15.667-15.313-15.667c-5.514,0-10.334,2.993-13.029,7.468
			C156.104,194.31,158.714,199.814,158.714,205.944z"/>
		<path fill="#333333" d="M132.344,211.042c0,2.998-0.633,5.846-1.75,8.427c2.265,1.353,4.892,2.143,7.704,2.143
			c8.455,0,15.313-7.015,15.313-15.667s-6.857-15.666-15.313-15.666c-4.865,0-9.191,2.329-11.996,5.949
			C130.029,200.013,132.344,205.256,132.344,211.042z"/>
		<path fill="#333333" d="M109.544,205.944c0,6.868-1.639,13.348-4.521,19.068c2.076,1.077,4.416,1.696,6.902,1.696
			c8.456,0,15.313-7.015,15.313-15.667s-6.857-15.666-15.313-15.666c-1.242,0-2.442,0.168-3.599,0.453
			C109.118,199.069,109.544,202.456,109.544,205.944z"/>
		<path fill="#333333" d="M65.309,49.278c0-8.652-6.857-15.667-15.313-15.667c-8.456,0-15.313,7.015-15.313,15.667
			c0,0.605,0.042,1.2,0.107,1.79c7.787,0.974,14.218,6.446,16.752,13.797C59.272,64.071,65.309,57.396,65.309,49.278z"/>
		<path fill="#333333" d="M47.614,71.785c0-8.653-6.856-15.667-15.313-15.667c-8.456,0-15.313,7.014-15.313,15.667
			c0,1.853,0.332,3.623,0.909,5.273c0.929-0.133,1.87-0.225,2.834-0.225c7.168,0,13.474,3.808,17.118,9.541
			C43.56,84.098,47.614,78.432,47.614,71.785z"/>
		<path fill="#333333" d="M36.044,97.721c0-8.652-6.856-15.667-15.313-15.667S5.419,89.069,5.419,97.721
			c0,3.666,1.24,7.029,3.301,9.698c2.742-1.404,5.824-2.213,9.092-2.213c4.801,0,9.213,1.715,12.703,4.564
			C33.893,106.896,36.044,102.567,36.044,97.721z"/>
		<path fill="#333333" d="M17.813,110.428c-8.456,0-15.313,7.015-15.313,15.667c0,5.394,2.666,10.149,6.721,12.967
			c3.61-3.29,8.349-5.308,13.553-5.308c2.637,0,5.151,0.53,7.468,1.468c1.807-2.573,2.883-5.718,2.883-9.127
			C33.125,117.442,26.269,110.428,17.813,110.428z"/>
		<path fill="#333333" d="M22.774,138.977c-8.456,0-15.313,7.013-15.313,15.665c0,6.787,4.227,12.551,10.127,14.726
			c3.647-5.712,9.942-9.503,17.095-9.503c0.832,0,1.647,0.066,2.453,0.167c0.604-1.685,0.95-3.493,0.95-5.39
			C38.086,145.989,31.229,138.977,22.774,138.977z"/>
		<path fill="#333333" d="M34.684,165.087c-8.456,0-15.313,7.015-15.313,15.667c0,6.674,4.088,12.357,9.835,14.616
			c2.613-10.209,8.917-18.896,17.356-24.496C43.755,167.345,39.478,165.087,34.684,165.087z"/>
		<ellipse fill="#333333" cx="68.711" cy="205.944" rx="35.729" ry="36.556"/>
	</g>
</g>
<g id="Layer_5" display="none">
	<path display="inline" fill="#4D4D4D" d="M165.304,35.724c5.158,1.826,10.097,4.074,14.771,6.736
		c0.35-3.516,1.918-6.676,4.274-9.056c-5.039-2.812-10.344-5.198-15.861-7.14c0.001,0.08,0.012,0.157,0.012,0.236
		C168.5,29.979,167.299,33.177,165.304,35.724z"/>
	<path display="inline" fill="#4D4D4D" d="M204.877,42.461c-0.722-4.813-4.862-8.509-9.877-8.509c-5.522,0-10,4.477-10,10
		c0,5.127,3.86,9.347,8.832,9.926C195.022,48.279,199.349,43.84,204.877,42.461z"/>
	<path display="inline" fill="#4D4D4D" d="M163.5,26.5c0-5.523-4.478-10-10-10c-1.176,0-2.299,0.213-3.346,0.586
		c1.065,2.06,1.679,4.391,1.679,6.866c0,4.102-1.658,7.822-4.335,10.532c1.673,1.26,3.746,2.016,6.002,2.016
		C159.022,36.5,163.5,32.023,163.5,26.5z"/>
	<path display="inline" fill="#4D4D4D" d="M218.488,57.226c0.002-0.076,0.012-0.15,0.012-0.226c0-5.523-4.478-10-10-10
		s-10,4.477-10,10c0,4.567,3.064,8.411,7.247,9.607C207.822,61.432,212.694,57.68,218.488,57.226z"/>
	<path display="inline" fill="#4D4D4D" d="M227.334,74.333c0.697,0,1.378,0.064,2.051,0.157c0.178-0.747,0.282-1.522,0.282-2.324
		c0-5.523-4.478-10-10-10s-10,4.477-10,10c0,3.795,2.114,7.097,5.229,8.791C217.595,76.964,222.162,74.333,227.334,74.333z"/>
	<path display="inline" fill="#4D4D4D" d="M232,92.667c1.563,0,3.069,0.242,4.486,0.687c0.542-1.231,0.848-2.589,0.848-4.021
		c0-5.523-4.478-10-10-10s-10,4.477-10,10c0,3.224,1.532,6.083,3.9,7.912C223.963,94.428,227.777,92.667,232,92.667z"/>
	<path display="inline" fill="#4D4D4D" d="M232.807,111.393c2.694,0,5.218,0.724,7.405,1.972c1.125-1.617,1.788-3.579,1.788-5.698
		c0-5.523-4.478-10-10-10s-10,4.477-10,10c0,2.427,0.865,4.65,2.303,6.382C226.722,112.378,229.65,111.393,232.807,111.393z"/>
	<path display="inline" fill="#4D4D4D" d="M242.807,126.393c0-5.523-4.478-10-10-10s-10,4.477-10,10
		c0,0.611,0.063,1.207,0.169,1.788c0.936-0.135,1.886-0.229,2.858-0.229c5.397,0,10.294,2.158,13.896,5.646
		C241.623,131.778,242.807,129.226,242.807,126.393z"/>
	<path display="inline" fill="#4D4D4D" d="M146.833,23.952c0-5.523-4.478-10-10-10c-2.103,0-4.052,0.652-5.662,1.761
		c1.872,2.503,2.995,5.597,2.995,8.955c0,2.923-0.854,5.644-2.305,7.953c1.466,0.842,3.16,1.332,4.972,1.332
		C142.355,33.952,146.833,29.475,146.833,23.952z"/>
	<path display="inline" fill="#4D4D4D" d="M129.166,24.668c0-5.523-4.477-10-10-10c-2.587,0-4.937,0.991-6.712,2.603
		c2.602,2.699,4.212,6.361,4.212,10.397c0,2.222-0.499,4.324-1.369,6.223c1.19,0.5,2.497,0.777,3.869,0.777
		C124.689,34.668,129.166,30.191,129.166,24.668z"/>
	<path display="inline" fill="#4D4D4D" d="M111.667,27.668c0-5.523-4.478-10-10-10c-3.022,0-5.725,1.346-7.558,3.465
		c3.095,2.75,5.058,6.746,5.058,11.202c0,1.668-0.285,3.268-0.79,4.768c1.032,0.36,2.136,0.565,3.29,0.565
		C107.189,37.668,111.667,33.191,111.667,27.668z"/>
	<path display="inline" fill="#4D4D4D" d="M94.167,32.334c0-5.523-4.478-10-10-10c-3.752,0-7.018,2.07-8.729,5.127
		c4.696,2.537,7.896,7.504,7.896,13.206c0,0.548-0.034,1.087-0.091,1.62c0.305,0.028,0.612,0.047,0.924,0.047
		C89.689,42.334,94.167,37.857,94.167,32.334z"/>
	<path display="inline" fill="#4D4D4D" d="M78.333,40.668c0-5.523-4.478-10-10-10c-4.066,0-7.559,2.431-9.122,5.916
		c5.116,2.922,8.811,8.031,9.823,14.049C74.229,50.271,78.333,45.954,78.333,40.668z"/>
	<path display="inline" fill="#4D4D4D" d="M227.707,162.823c7.397-0.925,13.127-7.223,13.127-14.871c0-8.284-6.717-15-15-15
		s-15,6.716-15,15c0,0.673,0.06,1.331,0.146,1.981C218.674,150.693,225.081,155.839,227.707,162.823z"/>
	<path display="inline" fill="#4D4D4D" d="M206.614,184.625c0.778,0.125,1.571,0.208,2.386,0.208c8.283,0,15-6.716,15-15
		s-6.717-15-15-15c-7.373,0-13.492,5.325-14.75,12.338C201.22,170.039,206.204,176.733,206.614,184.625z"/>
	<path display="inline" fill="#4D4D4D" d="M182,197.001c0,0.965-0.092,1.906-0.225,2.835c1.535,0.53,3.177,0.832,4.892,0.832
		c8.283,0,15-6.716,15-15s-6.717-15-15-15c-6.333,0-11.738,3.932-13.938,9.482C178.293,183.705,182,189.922,182,197.001z"/>
	<path display="inline" fill="#4D4D4D" d="M155.833,203.952c0,2.175-0.36,4.264-1.005,6.225c2.131,1.163,4.574,1.824,7.172,1.824
		c8.283,0,15-6.716,15-15s-6.717-15-15-15c-5.401,0-10.123,2.865-12.764,7.149C153.276,192.813,155.833,198.083,155.833,203.952z"/>
	<path display="inline" fill="#4D4D4D" d="M130,208.833c0,2.871-0.619,5.597-1.714,8.067c2.219,1.296,4.792,2.052,7.547,2.052
		c8.283,0,15-6.716,15-15s-6.717-15-15-15c-4.766,0-9.004,2.23-11.752,5.696C127.733,198.273,130,203.293,130,208.833z"/>
	<path display="inline" fill="#4D4D4D" d="M107.667,203.952c0,6.575-1.605,12.779-4.428,18.257c2.034,1.03,4.326,1.624,6.762,1.624
		c8.283,0,15-6.716,15-15s-6.717-15-15-15c-1.217,0-2.393,0.161-3.525,0.435C107.249,197.37,107.667,200.612,107.667,203.952z"/>
	<path display="inline" fill="#4D4D4D" d="M64.333,53.952c0-8.284-6.717-15-15-15s-15,6.716-15,15c0,0.58,0.041,1.15,0.105,1.713
		c7.628,0.934,13.928,6.173,16.41,13.21C58.42,68.116,64.333,61.725,64.333,53.952z"/>
	<path display="inline" fill="#4D4D4D" d="M47,75.501c0-8.284-6.717-15-15-15s-15,6.716-15,15c0,1.774,0.324,3.469,0.89,5.049
		c0.91-0.127,1.832-0.216,2.776-0.216c7.022,0,13.199,3.646,16.768,9.135C43.028,87.291,47,81.866,47,75.501z"/>
	<path display="inline" fill="#4D4D4D" d="M35.667,100.334c0-8.284-6.717-15-15-15s-15,6.716-15,15c0,3.509,1.214,6.729,3.233,9.285
		c2.687-1.344,5.705-2.119,8.907-2.119c4.704,0,9.025,1.643,12.444,4.37C33.559,109.119,35.667,104.974,35.667,100.334z"/>
	<path display="inline" fill="#4D4D4D" d="M17.807,112.5c-8.283,0-15,6.716-15,15c0,5.164,2.611,9.718,6.584,12.416
		c3.536-3.15,8.179-5.083,13.276-5.083c2.583,0,5.046,0.509,7.315,1.405c1.771-2.463,2.825-5.475,2.825-8.738
		C32.807,119.216,26.09,112.5,17.807,112.5z"/>
	<path display="inline" fill="#4D4D4D" d="M22.667,139.833c-8.283,0-15,6.716-15,15c0,6.498,4.141,12.016,9.921,14.099
		c3.573-5.47,9.739-9.099,16.746-9.099c0.815,0,1.614,0.063,2.403,0.159c0.591-1.611,0.93-3.344,0.93-5.159
		C37.667,146.549,30.95,139.833,22.667,139.833z"/>
	<path display="inline" fill="#4D4D4D" d="M34.333,164.833c-8.283,0-15,6.716-15,15c0,6.391,4.004,11.833,9.634,13.994
		c2.559-9.773,8.735-18.093,17.002-23.453C43.219,166.995,39.03,164.833,34.333,164.833z"/>
	<circle display="inline" fill="#4D4D4D" cx="67.667" cy="203.952" r="35"/>
</g>
</svg>
