<?xml version="1.0" encoding="utf-8"?>
<!-- Generator: Adobe Illustrator 15.0.0, SVG Export Plug-In . SVG Version: 6.00 Build 0)  -->
<!DOCTYPE svg PUBLIC "-//W3C//DTD SVG 1.1//EN" "http://www.w3.org/Graphics/SVG/1.1/DTD/svg11.dtd">
<svg version="1.1" id="Layer_1" xmlns="http://www.w3.org/2000/svg" xmlns:xlink="http://www.w3.org/1999/xlink" x="0px" y="0px"
	 width="160px" height="140px" viewBox="0 0 160 140" enable-background="new 0 0 160 140" xml:space="preserve">
<g id="SideBar">
	<g enable-background="new    ">
		<path fill="#E6E6E6" d="M1.095,134.658l4.159-2.518c0.803,1.423,1.532,2.627,3.284,2.627c1.678,0,2.736-0.656,2.736-3.21v-17.366
			h5.107v17.438c0,5.291-3.101,7.698-7.625,7.698C4.67,139.328,2.299,137.212,1.095,134.658z"/>
		<path fill="#E6E6E6" d="M35.102,113.972h0.438L46.886,139h-5.363l-1.168-2.81H30.286L29.118,139h-4.925L35.102,113.972z
			 M38.531,131.922l-1.788-4.305c-0.729-1.751-1.496-4.451-1.496-4.451s-0.729,2.7-1.459,4.451L32,131.922H38.531z"/>
		<path fill="#E6E6E6" d="M56.23,114.191h16.417v4.487h-11.31v7.88h9.96v4.379h-9.96v3.575h11.821V139H56.23V114.191z"/>
		<path fill="#E6E6E6" d="M83.891,114.191h5.107v20.321h11.236V139H83.891V114.191z"/>
		<path fill="#E6E6E6" d="M110.346,114.191h5.107v20.321h11.236V139h-16.344V114.191z"/>
		<path fill="#E6E6E6" d="M136.8,114.191h16.417v4.487h-11.309v7.88h9.959v4.379h-9.959v3.575h11.82V139H136.8V114.191z"/>
	</g>
	<path fill="#E6E6E6" d="M121.854,56.11C121.854,56.109,121.854,56.109,121.854,56.11c-3.459-9.554-16.703-15.472-17.289-15.723
		c-0.498-0.214-1.133,0.017-1.347,0.514c-0.213,0.497-0.014,1.072,0.482,1.286c0.137,0.058,13.7,5.978,16.171,14.877
		c0.005,0.018,0.003,0.039,0.008,0.056c0.264,0.965,0.375,1.937,0.354,2.91c-0.109,1.724-0.854,3.604-2.686,6.116
		c-1.32,1.811-3.146,2.729-5.421,2.729h-0.001c-5.582,0-13.458-5.589-18.534-12.977c-0.01-0.014-0.021-0.029-0.03-0.044
		c-0.135-0.195-0.268-0.396-0.396-0.596c-0.036-0.054-0.073-0.109-0.107-0.165c-0.158-0.242-0.312-0.485-0.463-0.729
		c-2.179-3.556-3.656-7.622-4.354-11.941c-0.232-1.439-0.379-2.907-0.438-4.394c-0.003-0.086-0.007-0.202-0.021-0.326
		c0.018-0.134,0.035-0.268,0.055-0.399c3.582-0.33,16.562-1.882,21.227-7.438c1.334-1.593,1.905-3.472,1.693-5.421
		c-0.38-3.495-4.838-7.554-10.234-7.554c-0.027,0-0.058,0-0.086,0c-3.097,0-5.553,1.272-7.504,3.112l-1.222,0.908
		c-0.024,0.017-0.049,0.056-0.071,0.077c-1.179,1.013-2.109,2.208-2.843,3.631c-0.062,0.097-0.12,0.203-0.181,0.301
		c-0.069-1.273-0.207-2.516-0.409-3.728c-0.005-0.05-0.011-0.101-0.015-0.15c-0.16-1.431-0.596-3.036-1.121-4.578
		c-0.709-2.253-1.605-4.324-2.598-6.145c-0.1-0.195-0.162-0.314-0.168-0.328c-0.031-0.06-0.07-0.118-0.111-0.167
		c-0.688-1.208-1.41-2.3-2.146-3.254c-3.312-4.299-7.324-6.764-11.009-6.764c-2.501,0-4.798,1.132-6.64,3.272
		c-2.657,3.087-3.653,6.536-2.96,10.252c0.99,5.31,5.372,11.031,13.021,17c2.477,1.935,4.881,3.563,6.814,4.794
		c-1.036-0.064-2.618-0.136-4.554-0.136c-15.22,0-22.033,3.978-25.069,7.314c-0.079,0.087-0.143,0.181-0.219,0.271
		c-0.019,0.019-0.043,0.028-0.062,0.049c-0.649,0.764-1.115,1.413-1.439,2.057c-2.107,3.29-2.994,7.171-2.448,10.908
		c0.871,5.953,4.431,9.538,9.767,9.839c0.249,0.015,0.5,0.022,0.753,0.022c5.105,0,11.032-2.843,16.394-7.887
		c3.127-2.943,5.877-6.489,8.142-10.44c0.869-1.478,1.676-3.056,2.414-4.725c0.45,4.149,1.856,10.407,5.972,17.119
		c5.489,8.948,14.531,15.443,21.504,15.442c2.51,0,4.834-0.783,6.663-2.326C124.48,68.082,123.236,60.084,121.854,56.11z
		 M100.438,18.967c0.021,0,0.043,0,0.065,0c4.259,0,8.022,3.182,8.302,5.749c0.154,1.417-0.254,2.695-1.246,3.878
		c-3.953,4.71-15.455,6.291-19.406,6.701c1.154-6.445,3.285-11.149,6.172-13.799l0.652-0.462c0.116-0.082,0.207-0.21,0.275-0.328
		C96.8,19.581,98.537,18.967,100.438,18.967z M63.359,12.973c-0.585-3.146,0.24-5.965,2.521-8.616
		c1.479-1.718,3.213-2.591,5.155-2.591c3.072,0,6.52,2.187,9.457,6.001c0.761,0.988,1.51,2.132,2.211,3.407
		c0.206,0.408,0.619,1.25,1.097,2.333c0.286,0.646,0.589,1.374,0.886,2.141c0.597,1.726,1.153,3.909,1.267,6.227
		c0.304,6.317-0.544,8.999-1.365,11.594c-0.094,0.297-0.188,0.593-0.278,0.891c-0.027,0.094-0.06,0.186-0.088,0.279
		C78.75,31.347,65.092,22.281,63.359,12.973z M76.717,36.951c3.131,0,5.363,0.195,5.659,0.223l0.897,0.153
		c-3.521,8.984-10.737,18.068-21.716,19.384c-2.262,0.271-5.416,0.233-7.6-1.489c-1.382-1.089-2.214-2.753-2.47-4.945
		c-0.262-2.232-0.314-3.37,0.031-4.336c0.075-0.148,0.142-0.298,0.221-0.443c0.267-0.399,0.55-0.79,0.858-1.167
		c0.03-0.035,0.055-0.073,0.079-0.11l0.187-0.31c0.081-0.096,0.151-0.194,0.234-0.289C58.38,37.818,70.164,36.951,76.717,36.951z"/>
</g>
<g id="Black-bg" display="none">
	
		<rect x="1019.714" y="-94.856" display="inline" opacity="0.85" fill="#FFFFFF" enable-background="new    " width="970" height="767"/>
</g>
<g id="ProductList" display="none">
	<g display="inline">
		<text transform="matrix(1 0 0 1 1049.7139 284.6904)" font-family="'ArialMT'" font-size="15">croissant bracelet — </text>
		<text transform="matrix(1 0 0 1 1225.0166 284.6904)" font-family="'ArialMT'" font-size="15">$23</text>
		<text transform="matrix(1 0 0 1 1358.7139 284.6904)" font-family="'ArialMT'" font-size="15">croissant bracelet — </text>
		<text transform="matrix(1 0 0 1 1534.0166 284.6904)" font-family="'ArialMT'" font-size="15">$23</text>
		<text transform="matrix(1 0 0 1 1669.7139 284.6904)" font-family="'ArialMT'" font-size="15">croissant bracelet — </text>
		<text transform="matrix(1 0 0 1 1845.0166 284.6904)" font-family="'ArialMT'" font-size="15">$23</text>
		<text transform="matrix(1 0 0 1 1049.7139 532.6904)" font-family="'ArialMT'" font-size="15">croissant bracelet — </text>
		<text transform="matrix(1 0 0 1 1225.0166 532.6904)" font-family="'ArialMT'" font-size="15">$23</text>
		<text transform="matrix(1 0 0 1 1358.7139 532.6904)" font-family="'ArialMT'" font-size="15">croissant bracelet — </text>
		<text transform="matrix(1 0 0 1 1534.0166 532.6904)" font-family="'ArialMT'" font-size="15">$23</text>
		<text transform="matrix(1 0 0 1 1669.7139 532.6904)" font-family="'ArialMT'" font-size="15">croissant bracelet — </text>
		<text transform="matrix(1 0 0 1 1845.0166 532.6904)" font-family="'ArialMT'" font-size="15">$23</text>
	</g>
	<text transform="matrix(1 0 0 1 1258.7109 15.7432)" display="inline" font-family="'ArialMT'" font-size="36">— </text>
	<text transform="matrix(1 0 0 1 1300.9746 15.7432)" display="inline" font-family="'ArialMT'" font-size="36">Bracelets</text>
	<text transform="matrix(1 0 0 1 1480.6855 15.7432)" display="inline" font-family="'ArialMT'" font-size="36"> yourselves! —</text>
</g>
<g id="Layer_3" display="none">
	<rect x="779.714" y="-124.856" display="inline" width="41" height="800"/>
	<rect x="840.714" y="-124.856" display="inline" width="41" height="800"/>
	<rect x="901.714" y="-124.856" display="inline" width="41" height="800"/>
	<rect x="962.714" y="-124.856" display="inline" width="41" height="800"/>
	<rect x="1023.714" y="-124.856" display="inline" width="41" height="800"/>
	<rect x="1084.714" y="-124.856" display="inline" width="41" height="800"/>
	<rect x="1145.714" y="-124.856" display="inline" width="41" height="800"/>
	<rect x="1206.714" y="-124.856" display="inline" width="41" height="800"/>
	<rect x="1267.714" y="-124.856" display="inline" width="41" height="800"/>
	<rect x="1328.714" y="-124.856" display="inline" width="41" height="800"/>
	<rect x="1389.714" y="-124.856" display="inline" width="41" height="800"/>
	<rect x="1450.714" y="-124.856" display="inline" width="41" height="800"/>
	<rect x="1511.714" y="-124.856" display="inline" width="41" height="800"/>
	<rect x="1572.714" y="-124.856" display="inline" width="41" height="800"/>
	<rect x="1633.714" y="-124.856" display="inline" width="41" height="800"/>
	<rect x="1694.714" y="-124.856" display="inline" width="41" height="800"/>
	<rect x="1755.714" y="-124.856" display="inline" width="41" height="800"/>
	<rect x="1816.714" y="-124.856" display="inline" width="41" height="800"/>
	<rect x="1877.714" y="-124.856" display="inline" width="41" height="800"/>
	<rect x="1938.714" y="-124.856" display="inline" width="41" height="800"/>
</g>
</svg>
