<?xml version="1.0" encoding="utf-8"?>
<!-- Generator: Adobe Illustrator 14.0.0, SVG Export Plug-In . SVG Version: 6.00 Build 43363)  -->
<!DOCTYPE svg PUBLIC "-//W3C//DTD SVG 1.1//EN" "http://www.w3.org/Graphics/SVG/1.1/DTD/svg11.dtd">
<svg version="1.1" id="Layer_1" xmlns="http://www.w3.org/2000/svg" xmlns:xlink="http://www.w3.org/1999/xlink" x="0px" y="0px"
	 width="603.061px" height="219.83px" viewBox="0 0 603.061 219.83" enable-background="new 0 0 603.061 219.83"
	 xml:space="preserve">
<path fill="none" stroke="#FFFFFF" stroke-width="1.1" stroke-miterlimit="10" d="M168.712,64.024
	c75.268-15,128.091-14.87,171.499-7.524c65,11,72.307,31.391,78.871,50.12c23.875,68.111-86.946,63.96-127.368,61.193
	c-32.34-2.215-92.192-21.178-77.662-65.722c8.334-25.551,39.72-44.467,62.933-47.138c32.75-3.767,164.829,35.294,130.123,90.665
	c-21.848,34.855-95.376,31.479-130.019,28.272c-35.811-3.315-81.573-18.37-73.465-61.193c4.143-21.881,11.364-43.438,31.28-50.618
	c64.89-23.396,126.626,0.342,175.896,46.533"/>
</svg>
