<?xml version="1.0" encoding="utf-8"?>
<!-- Generator: Adobe Illustrator 15.1.0, SVG Export Plug-In . SVG Version: 6.00 Build 0)  -->
<!DOCTYPE svg PUBLIC "-//W3C//DTD SVG 1.1//EN" "http://www.w3.org/Graphics/SVG/1.1/DTD/svg11.dtd">
<svg version="1.1" xmlns="http://www.w3.org/2000/svg" xmlns:xlink="http://www.w3.org/1999/xlink" x="0px" y="0px" width="250px"
	 height="250px" viewBox="0 0 250 250" enable-background="new 0 0 250 250" xml:space="preserve">
<g id="Layer_1" display="none">
	<g display="inline">
		<path fill="#FFFFFF" d="M125,186C58.28,186,4,145.178,4,95S58.28,4,125,4s121,40.822,121,91S191.72,186,125,186z"/>
		<path fill="#4D4D4D" d="M125,8c64.514,0,117,39.028,117,87c0,47.972-52.486,87-117,87C60.486,182,8,142.972,8,95
			C8,47.028,60.486,8,125,8 M125,0C55.964,0,0,42.533,0,95c0,52.468,55.964,95,125,95c69.036,0,125-42.532,125-95
			C250,42.533,194.036,0,125,0L125,0z"/>
	</g>
	<g display="inline">
		<polygon fill="#4D4D4D" points="160.909,215.416 162.642,165.915 206.378,189.165 196.768,225.023 		"/>
		<path fill="#FFFFFF" d="M165,170l38.448,20.438L195,221.962l-31.522-8.446L165,170 M160.283,161.83l-0.28,7.995l-1.522,43.516
			l-0.139,3.975l3.842,1.03l31.522,8.446l4.829,1.294l1.294-4.83l8.448-31.523l1.03-3.842l-3.513-1.867l-38.448-20.438
			L160.283,161.83L160.283,161.83z"/>
	</g>
	<g display="inline">
		<polygon fill="#4D4D4D" points="43.624,189.163 87.358,165.915 89.092,215.415 53.232,225.022 		"/>
		<path fill="#FFFFFF" d="M85,170l1.524,43.515L55,221.961l-8.446-31.523L85,170 M89.717,161.83l-7.064,3.755l-38.446,20.438
			l-3.512,1.867l1.029,3.842l8.446,31.523l1.294,4.83l4.83-1.294l31.524-8.446l3.842-1.03l-0.139-3.975l-1.524-43.515L89.717,161.83
			L89.717,161.83z"/>
	</g>
	<g display="inline">
		<polygon fill="#4D4D4D" points="91.057,219.592 125,165.283 158.943,219.592 125,253.535 		"/>
		<path fill="#FFFFFF" d="M125,170l30.77,49.23L125,250l-30.769-30.77L125,170 M125,160.566l-4.24,6.783l-30.769,49.23l-2.108,3.373
			l2.813,2.813l30.769,30.77l3.536,3.536l3.535-3.536l30.77-30.77l2.813-2.813l-2.107-3.373l-30.77-49.23L125,160.566L125,160.566z"
			/>
	</g>
</g>
<g id="Layer_2" display="none">
	<g display="inline">
		<path fill="#FFFFFF" d="M104.853,198.551c-15.274-0.001-29.667-2.028-41.622-5.861c-17.879-5.734-29.576-15-35.758-28.325
			c-9.641-20.782-5.556-52.119,12.488-95.802c8.463-20.487,22.805-37.252,41.475-48.484C98.921,9.56,119.763,4,141.709,4
			c13.616,0,27.148,2.125,40.219,6.317c27.359,8.774,47.08,24.75,57.031,46.201c10.001,21.557,9.342,47.342-1.904,74.567
			c-18.296,44.292-80.351,67.466-132.195,67.466C104.856,198.551,104.856,198.551,104.853,198.551z"/>
		<path fill="#4D4D4D" d="M141.709,8c13.201,0,26.322,2.061,38.997,6.126c26.268,8.424,45.156,23.665,54.624,44.075
			c9.519,20.517,8.836,45.191-1.972,71.356c-17.626,42.668-77.988,64.993-128.506,64.993c-14.863,0-28.833-1.961-40.4-5.671
			c-16.756-5.373-27.665-13.943-33.351-26.199c-9.145-19.712-5.037-49.999,12.557-92.591c8.133-19.688,21.91-35.797,39.84-46.583
			C100.361,13.362,120.489,8,141.709,8 M141.709,0C97.497,0,54.845,22.057,36.265,67.035
			c-24.417,59.11-30.723,111.354,25.745,129.463c12.635,4.052,27.35,6.053,42.843,6.053c53.748,0,116.946-24.055,135.899-69.938
			c24.417-59.109-1.134-107.995-57.603-126.104C169.649,2.179,155.6,0,141.709,0L141.709,0z"/>
	</g>
</g>
<g id="Layer_4" display="none">
	
		<circle display="inline" fill="#4D4D4D" stroke="#FFFFFF" stroke-width="5" stroke-miterlimit="10" cx="72" cy="198.999" r="16.718"/>
	
		<circle display="inline" fill="#4D4D4D" stroke="#FFFFFF" stroke-width="5" stroke-miterlimit="10" cx="163.874" cy="188.624" r="16.718"/>
	
		<circle display="inline" fill="#4D4D4D" stroke="#FFFFFF" stroke-width="5" stroke-miterlimit="10" cx="142.155" cy="198.625" r="16.718"/>
	
		<circle display="inline" fill="#4D4D4D" stroke="#FFFFFF" stroke-width="5" stroke-miterlimit="10" cx="21.282" cy="122.999" r="16.718"/>
	
		<circle display="inline" fill="#4D4D4D" stroke="#FFFFFF" stroke-width="5" stroke-miterlimit="10" cx="115.437" cy="202.55" r="16.718"/>
	
		<circle display="inline" fill="#4D4D4D" stroke="#FFFFFF" stroke-width="5" stroke-miterlimit="10" cx="88.719" cy="200.999" r="16.718"/>
	
		<circle display="inline" fill="#4D4D4D" stroke="#FFFFFF" stroke-width="5" stroke-miterlimit="10" cx="21.282" cy="145.999" r="16.718"/>
	
		<circle display="inline" fill="#4D4D4D" stroke="#FFFFFF" stroke-width="5" stroke-miterlimit="10" cx="29" cy="165.562" r="16.718"/>
	
		<circle display="inline" fill="#4D4D4D" stroke="#FFFFFF" stroke-width="5" stroke-miterlimit="10" cx="41.859" cy="182.28" r="16.718"/>
</g>
<g id="Layer_3" display="none">
	<g display="inline">
		<polygon fill="#4D4D4D" points="6.978,204.376 73.639,173.154 76.299,240.096 21.756,252.973 		"/>
		<path fill="#FFFFFF" d="M71.29,177.015l2.429,61.121L23.465,250L10,205.721L71.29,177.015 M75.987,169.294l-6.818,3.192
			l-61.29,28.706l-3.924,1.838l1.261,4.146l13.465,44.279l1.365,4.489l4.567-1.078l50.254-11.864l4.011-0.947l-0.164-4.117
			l-2.429-61.121L75.987,169.294L75.987,169.294z"/>
	</g>
	<g display="inline">
		<polygon fill="#4D4D4D" points="23.837,208.496 58.064,192.466 59.439,227.063 31.49,233.661 		"/>
		<path fill="#FFFFFF" d="M55.716,196.326l1.144,28.776l-23.66,5.586l-6.34-20.848L55.716,196.326 M60.413,188.605l-6.818,3.192
			l-28.856,13.515l-3.924,1.838l1.261,4.146l6.34,20.848l1.365,4.489l4.567-1.078l23.66-5.586l4.011-0.947l-0.164-4.117
			l-1.144-28.776L60.413,188.605L60.413,188.605z"/>
	</g>
</g>
<g id="Layer_7" display="none">
	<g display="inline">
		<path fill="#4D4D4D" d="M141.709,8c13.201,0,26.322,2.061,38.997,6.126c26.268,8.424,45.156,23.665,54.624,44.075
			c9.519,20.517,8.836,45.191-1.972,71.356c-17.626,42.668-77.988,64.993-128.506,64.993c-14.863,0-28.833-1.961-40.4-5.671
			c-16.756-5.373-27.665-13.943-33.351-26.199c-9.145-19.712-5.037-49.999,12.557-92.591c8.133-19.688,21.91-35.797,39.84-46.583
			C100.361,13.362,120.489,8,141.709,8 M141.709,0C97.497,0,54.845,22.057,36.265,67.035
			c-24.417,59.11-30.723,111.354,25.745,129.463c12.635,4.052,27.35,6.053,42.843,6.053c53.748,0,116.946-24.055,135.899-69.938
			c24.417-59.109-1.134-107.995-57.603-126.104C169.649,2.179,155.6,0,141.709,0L141.709,0z"/>
	</g>
</g>
<g id="Layer_10" display="none">
	<path display="inline" fill="#4D4D4D" d="M183.149,6.508C169.649,2.179,155.6,0,141.709,0C97.497,0,54.845,22.057,36.265,67.035
		c-5.247,12.702-9.654,25.084-12.785,36.882c2.761,0.316,5.337,1.228,7.618,2.59c2.872-10.97,7.056-23.091,12.561-36.418
		c8.133-19.688,21.91-35.797,39.84-46.583C100.361,13.362,120.489,8,141.709,8c13.201,0,26.322,2.061,38.997,6.126
		c26.268,8.424,45.156,23.665,54.624,44.075c9.519,20.517,8.836,45.191-1.972,71.356c-8.962,21.694-28.974,38.125-53.12,49.041
		c1.385,2.251,2.317,4.802,2.674,7.537c26.201-11.742,47.993-29.686,57.84-53.523C265.169,73.503,239.618,24.618,183.149,6.508z"/>
</g>
<g id="Layer_5" display="none">
	<path display="inline" fill="#4D4D4D" d="M33.106,130.881c1.51-2.258,2.394-4.968,2.394-7.882c0-7.84-6.378-14.218-14.219-14.218
		c-7.84,0-14.218,6.378-14.218,14.218c0,2.914,0.884,5.624,2.394,7.882c3.265-2.559,7.364-4.1,11.824-4.1
		C25.742,126.781,29.842,128.322,33.106,130.881z"/>
	<path display="inline" fill="#4D4D4D" d="M163.873,174.406c-5.365,0-10.042,2.988-12.463,7.387
		c5.933,3.274,9.963,9.59,9.963,16.832c0,1.343-0.141,2.652-0.403,3.918c0.938,0.195,1.908,0.3,2.903,0.3
		c7.84,0,14.219-6.379,14.219-14.219S171.713,174.406,163.873,174.406z"/>
	<path display="inline" fill="#4D4D4D" d="M142.154,184.407c-4.854,0-9.143,2.448-11.709,6.171c2.628,3.287,4.21,7.445,4.21,11.972
		c0,2.528-0.503,4.938-1.395,7.151c2.438,1.962,5.528,3.143,8.894,3.143c7.84,0,14.219-6.379,14.219-14.219
		S149.994,184.407,142.154,184.407z"/>
	<path display="inline" fill="#4D4D4D" d="M115.437,188.332c-3.737,0-7.132,1.46-9.672,3.826c1.38,2.649,2.172,5.652,2.172,8.841
		c0,3.986-1.221,7.692-3.308,10.766c2.61,3.057,6.482,5.004,10.807,5.004c7.84,0,14.219-6.379,14.219-14.219
		S123.277,188.332,115.437,188.332z"/>
	<path display="inline" fill="#4D4D4D" d="M29,146.344c2.255,0,4.412,0.411,6.424,1.128c0.05-0.484,0.077-0.976,0.077-1.473
		c0-7.84-6.378-14.218-14.219-14.218c-7.84,0-14.218,6.378-14.218,14.218c0,4.272,1.903,8.102,4.896,10.71
		C15.168,150.559,21.596,146.344,29,146.344z"/>
	<path display="inline" fill="#4D4D4D" d="M41.859,163.063c0.383,0,0.757,0.035,1.134,0.058
		c-1.163-6.679-6.987-11.776-13.994-11.776c-7.84,0-14.218,6.378-14.218,14.218c0,5.705,3.385,10.623,8.245,12.886
		C24.809,169.681,32.575,163.063,41.859,163.063z"/>
</g>
<g id="Layer_6" display="none">
	<g display="inline">
		<path fill="#4D4D4D" d="M71.29,177.015L10,205.721L23.465,250l50.254-11.864L71.29,177.015z M58.008,229.969l-23.66,5.586
			l-4.567,1.078l-1.365-4.489l-6.34-20.848l-1.261-4.146l3.924-1.838l28.856-13.515l6.818-3.192l0.299,7.522l1.144,28.776
			l0.164,4.117L58.008,229.969z"/>
		<polygon fill="#4D4D4D" points="26.859,209.841 33.199,230.688 56.859,225.103 55.716,196.326 		"/>
	</g>
</g>
<g id="Layer_9" display="none">
	<g display="inline">
		<circle fill="#4D4D4D" cx="163.874" cy="188.624" r="16.718"/>
		<path fill="#C1272D" d="M163.873,207.843c-10.597,0-19.218-8.621-19.218-19.219c0-10.597,8.621-19.218,19.218-19.218
			c10.598,0,19.219,8.621,19.219,19.218C183.092,199.222,174.471,207.843,163.873,207.843z M163.873,174.406
			c-7.84,0-14.218,6.378-14.218,14.218s6.378,14.219,14.218,14.219s14.219-6.379,14.219-14.219S171.713,174.406,163.873,174.406z"/>
	</g>
	<g display="inline">
		<circle fill="#4D4D4D" cx="142.155" cy="198.625" r="16.718"/>
		<path fill="#C1272D" d="M142.154,217.844c-10.597,0-19.217-8.621-19.217-19.219c0-10.597,8.621-19.218,19.217-19.218
			c10.598,0,19.219,8.621,19.219,19.218C161.373,209.223,152.752,217.844,142.154,217.844z M142.154,184.407
			c-7.84,0-14.218,6.378-14.218,14.218s6.378,14.219,14.218,14.219s14.219-6.379,14.219-14.219S149.994,184.407,142.154,184.407z"/>
	</g>
	<g display="inline">
		<circle fill="#4D4D4D" cx="21.282" cy="122.999" r="16.718"/>
		<path fill="#C1272D" d="M21.282,142.218c-10.597,0-19.218-8.621-19.218-19.219c0-10.597,8.621-19.218,19.218-19.218
			c10.597,0,19.219,8.621,19.219,19.218C40.5,133.597,31.879,142.218,21.282,142.218z M21.282,108.781
			c-7.84,0-14.218,6.378-14.218,14.218s6.378,14.219,14.218,14.219c7.84,0,14.219-6.379,14.219-14.219
			S29.122,108.781,21.282,108.781z"/>
	</g>
	<g display="inline">
		<circle fill="#4D4D4D" cx="115.437" cy="202.55" r="16.718"/>
		<path fill="#C1272D" d="M115.437,221.769c-10.597,0-19.218-8.621-19.218-19.219c0-10.597,8.621-19.218,19.218-19.218
			c10.598,0,19.219,8.621,19.219,19.218C134.655,213.147,126.034,221.769,115.437,221.769z M115.437,188.332
			c-7.84,0-14.218,6.378-14.218,14.218s6.378,14.219,14.218,14.219c7.84,0,14.219-6.379,14.219-14.219
			S123.277,188.332,115.437,188.332z"/>
	</g>
	<g display="inline">
		<circle fill="#4D4D4D" cx="88.719" cy="200.999" r="16.718"/>
		<path fill="#C1272D" d="M88.718,220.218c-10.597,0-19.218-8.621-19.218-19.219c0-10.597,8.621-19.218,19.218-19.218
			c10.597,0,19.219,8.621,19.219,19.218C107.937,211.597,99.315,220.218,88.718,220.218z M88.718,186.781
			c-7.84,0-14.218,6.378-14.218,14.218s6.378,14.219,14.218,14.219c7.84,0,14.219-6.379,14.219-14.219
			S96.559,186.781,88.718,186.781z"/>
	</g>
	<g display="inline">
		<circle fill="#4D4D4D" cx="21.282" cy="145.999" r="16.718"/>
		<path fill="#C1272D" d="M21.282,165.218c-10.597,0-19.218-8.621-19.218-19.219c0-10.597,8.621-19.218,19.218-19.218
			c10.597,0,19.219,8.621,19.219,19.218C40.5,156.597,31.879,165.218,21.282,165.218z M21.282,131.781
			c-7.84,0-14.218,6.378-14.218,14.218s6.378,14.219,14.218,14.219c7.84,0,14.219-6.379,14.219-14.219
			S29.122,131.781,21.282,131.781z"/>
	</g>
	<g display="inline">
		<circle fill="#4D4D4D" cx="29" cy="165.562" r="16.718"/>
		<path fill="#C1272D" d="M29,184.78c-10.597,0-19.218-8.621-19.218-19.219c0-10.597,8.621-19.218,19.218-19.218
			c10.597,0,19.219,8.621,19.219,19.218C48.218,176.159,39.597,184.78,29,184.78z M29,151.344c-7.84,0-14.218,6.378-14.218,14.218
			S21.16,179.78,29,179.78c7.84,0,14.219-6.379,14.219-14.219S36.84,151.344,29,151.344z"/>
	</g>
	<g display="inline">
		<circle fill="#4D4D4D" cx="41.859" cy="182.28" r="16.718"/>
		<path fill="#C1272D" d="M41.859,201.499c-10.597,0-19.218-8.621-19.218-19.219c0-10.597,8.621-19.218,19.218-19.218
			c10.597,0,19.219,8.621,19.219,19.218C61.078,192.878,52.456,201.499,41.859,201.499z M41.859,168.063
			c-7.84,0-14.218,6.378-14.218,14.218s6.378,14.219,14.218,14.219c7.84,0,14.219-6.379,14.219-14.219
			S49.699,168.063,41.859,168.063z"/>
	</g>
</g>
<g id="Layer_8" display="none">
	<path display="inline" fill="#4D4D4D" d="M88.718,186.781c-4.9,0-9.229,2.492-11.787,6.274l0.667,16.778
		c2.607,3.274,6.618,5.384,11.12,5.384c7.84,0,14.219-6.379,14.219-14.219S96.559,186.781,88.718,186.781z"/>
	<path display="inline" fill="#4D4D4D" d="M41.859,168.063c-7.84,0-14.218,6.378-14.218,14.218c0,3.13,1.029,6.018,2.749,8.369
		l25.245-11.824C54.085,172.652,48.506,168.063,41.859,168.063z"/>
</g>
<g id="Layer_11">
	<g>
		<path fill="#333333" d="M180.081,8.878C166.466,4.636,152.297,2.5,138.288,2.5c-44.586,0-87.601,21.616-106.339,65.695
			c-5.292,12.447-9.736,24.583-12.893,36.144c2.784,0.31,5.382,1.203,7.683,2.539c2.896-10.75,7.115-22.629,12.667-35.689
			c8.203-19.295,22.096-35.081,40.178-45.652c17.005-9.941,37.305-15.196,58.704-15.196c13.313,0,26.547,2.02,39.33,6.004
			c26.49,8.255,45.539,23.191,55.087,43.193c9.6,20.106,8.911,44.288-1.988,69.93c-9.038,21.26-29.22,37.362-53.571,48.06
			c1.396,2.206,2.337,4.706,2.696,7.387c26.425-11.508,48.4-29.092,58.332-52.453C262.798,74.533,237.03,26.625,180.081,8.878z"/>
		<path fill="#333333" d="M28.764,130.763c1.523-2.213,2.415-4.868,2.415-7.724c0-7.683-6.432-13.933-14.339-13.933
			c-7.907,0-14.339,6.25-14.339,13.933c0,2.856,0.892,5.511,2.414,7.724c3.292-2.507,7.427-4.018,11.925-4.018
			S25.471,128.256,28.764,130.763z"/>
		<path fill="#333333" d="M160.641,173.418c-5.41,0-10.127,2.928-12.568,7.238c5.983,3.21,10.048,9.399,10.048,16.496
			c0,1.315-0.143,2.6-0.407,3.839c0.946,0.192,1.925,0.294,2.928,0.294c7.907,0,14.341-6.251,14.341-13.934
			S168.548,173.418,160.641,173.418z"/>
		<path fill="#333333" d="M138.738,183.219c-4.896,0-9.221,2.399-11.81,6.047c2.651,3.222,4.246,7.297,4.246,11.733
			c0,2.478-0.507,4.839-1.405,7.008c2.457,1.923,5.574,3.08,8.969,3.08c7.906,0,14.339-6.251,14.339-13.935
			C153.077,189.47,146.645,183.219,138.738,183.219z"/>
		<path fill="#333333" d="M111.793,187.065c-3.769,0-7.192,1.431-9.754,3.749c1.392,2.598,2.191,5.54,2.191,8.664
			c0,3.906-1.232,7.539-3.336,10.55c2.632,2.997,6.538,4.904,10.899,4.904c7.907,0,14.338-6.251,14.338-13.934
			C126.132,193.315,119.701,187.065,111.793,187.065z"/>
		<path fill="#333333" d="M24.622,145.917c2.275,0,4.449,0.402,6.479,1.105c0.051-0.476,0.078-0.956,0.078-1.443
			c0-7.683-6.432-13.934-14.339-13.934c-7.907,0-14.339,6.251-14.339,13.934c0,4.187,1.919,7.939,4.938,10.496
			C10.673,150.048,17.155,145.917,24.622,145.917z"/>
		<path fill="#333333" d="M37.59,162.302c0.386,0,0.764,0.034,1.145,0.057c-1.174-6.546-7.047-11.541-14.113-11.541
			c-7.907,0-14.338,6.25-14.338,13.934c0,5.59,3.414,10.41,8.315,12.628C20.396,168.787,28.228,162.302,37.59,162.302z"/>
		<g>
			<path fill="#333333" d="M67.272,175.975L5.461,204.105l13.58,43.395l50.681-11.627L67.272,175.975z M53.877,227.869
				l-23.861,5.474L25.41,234.4l-1.377-4.4l-6.394-20.43l-1.271-4.063l3.957-1.802l29.102-13.244l6.875-3.129l0.302,7.372
				l1.153,28.201l0.165,4.034L53.877,227.869z"/>
			<polygon fill="#333333" points="22.464,208.144 28.857,228.575 52.718,223.101 51.565,194.9 			"/>
		</g>
		<path fill="#333333" d="M84.848,185.545c-4.941,0-9.308,2.443-11.887,6.149l0.673,16.443c2.629,3.209,6.674,5.275,11.214,5.275
			c7.907,0,14.34-6.251,14.34-13.935C99.188,191.796,92.755,185.545,84.848,185.545z"/>
		<path fill="#333333" d="M37.59,167.201c-7.906,0-14.338,6.25-14.338,13.933c0,3.068,1.038,5.898,2.772,8.203l25.46-11.588
			C49.921,171.699,44.294,167.201,37.59,167.201z"/>
	</g>
</g>
</svg>
