<?xml version="1.0" encoding="utf-8"?>
<!-- Generator: Adobe Illustrator 15.1.0, SVG Export Plug-In . SVG Version: 6.00 Build 0)  -->
<!DOCTYPE svg PUBLIC "-//W3C//DTD SVG 1.1//EN" "http://www.w3.org/Graphics/SVG/1.1/DTD/svg11.dtd">
<svg version="1.1" id="Layer_1" xmlns="http://www.w3.org/2000/svg" xmlns:xlink="http://www.w3.org/1999/xlink" x="0px" y="0px"
	 width="500px" height="500px" viewBox="0 0 500 500" enable-background="new 0 0 500 500" xml:space="preserve">
<rect x="-400" y="-469" fill="none" width="1016" height="368"/>
<text transform="matrix(1 0 0 1 -400 -438.2563)"><tspan x="0" y="0" font-family="'TrendOrnaments'" font-size="36">1245678</tspan><tspan x="0" y="43.2" font-family="'TrendOrnaments'" font-size="36">90-=</tspan><tspan x="0" y="86.4" font-family="'TrendOrnaments'" font-size="36">qwertyuiop[]\</tspan><tspan x="0" y="129.6" font-family="'TrendOrnaments'" font-size="36">asdfghjkl;’`</tspan><tspan x="0" y="172.8" font-family="'TrendOrnaments'" font-size="36">zxcvbnm,./</tspan><tspan x="0" y="216" font-family="'TrendOrnaments'" font-size="36">~!@#$%^&amp;*()_+QW</tspan><tspan x="0" y="259.2" font-family="'TrendOrnaments'" font-size="36">ERTYUIOP{}|ASDFGHJKL:</tspan><tspan x="0" y="302.4" font-family="'TrendOrnaments'" font-size="36">”ZXCVBNM&lt;&gt;?</tspan></text>
<g>
	<path fill="#1A1A1A" d="M25,177.272L69.129,66.014l78.941,111.259H25z M146.207,189.717l102.55,248.62L26.872,189.717H146.207z
		 M82.805,61.663h172.166l-96.336,106.908L82.805,61.663z M159.259,189.717h183.354l-87.642,231.826L159.259,189.717z
		 M254.971,80.313l83.291,96.959H167.336L254.971,80.313z M254.971,61.663h166.575l-74.583,106.301L254.971,61.663z
		 M355.664,189.717h118.088l-210.08,245.5L355.664,189.717z M432.111,68.51L475,177.272H353.801L432.111,68.51z"/>
</g>
</svg>
