<?xml version="1.0" standalone="no"?>
<!DOCTYPE svg PUBLIC "-//W3C//DTD SVG 1.1//EN" "http://www.w3.org/Graphics/SVG/1.1/DTD/svg11.dtd" >
<svg xmlns="http://www.w3.org/2000/svg">
<metadata></metadata>
<defs>
<font id="carrosseriebold" horiz-adv-x="1134" >
<font-face units-per-em="2048" ascent="1536" descent="-512" />
<missing-glyph horiz-adv-x="483" />
<glyph horiz-adv-x="2048" />
<glyph horiz-adv-x="2048" />
<glyph unicode="&#xd;" horiz-adv-x="2048" />
<glyph unicode=" "  horiz-adv-x="483" />
<glyph unicode="&#x09;" horiz-adv-x="483" />
<glyph unicode="&#xa0;" horiz-adv-x="483" />
<glyph unicode="!" horiz-adv-x="628" d="M215 0v279h281v-279h-281zM217 403v1029h277v-1029h-277z" />
<glyph unicode="#" horiz-adv-x="1320" d="M80 559v246h213l22 147h-192v246h225l35 238h256l-35 -238h152l37 238h254l-33 -238h174v-246h-209l-23 -147h191v-246h-223l-33 -225h-254l29 225h-152l-29 -225h-258l33 225h-180zM549 805h151l23 147h-154z" />
<glyph unicode="$" horiz-adv-x="1003" d="M92 209l234 201q40 -73 88.5 -110.5t95.5 -37.5q52 0 88.5 37t36.5 90q0 54 -48.5 109t-152.5 129q-161 117 -226 210t-65 218q0 131 81.5 235.5t211.5 139.5v196l203 -35v-155q164 -39 291 -197l-228 -184q-23 33 -42 55t-51 41.5t-66 19.5q-46 0 -79.5 -31.5 t-33.5 -80.5q0 -45 37.5 -86.5t136.5 -112.5q184 -133 256 -231.5t72 -231.5q0 -137 -84.5 -246.5t-214.5 -148.5v-201l-203 35v156q-193 31 -338 217z" />
<glyph unicode="%" horiz-adv-x="1779" d="M80 1040q0 175 94 296.5t240 121.5t240 -121.5t94 -296.5q0 -177 -91.5 -295t-242.5 -118t-242.5 118t-91.5 295zM328 1040q0 -73 24.5 -126.5t61.5 -53.5t61.5 53.5t24.5 126.5t-25 127t-61 54t-61 -54t-25 -127zM412 0l682 1434h274l-682 -1434h-274zM1032 393 q0 175 94 296.5t240 121.5t240 -121.5t94 -296.5q0 -177 -91.5 -295t-242.5 -118t-242.5 118t-91.5 295zM1280 393q0 -73 24.5 -126.5t61.5 -53.5t61.5 53.5t24.5 126.5t-25 126.5t-61 53.5t-61 -53.5t-25 -126.5z" />
<glyph unicode="&#x26;" horiz-adv-x="1288" d="M98 487q0 144 53 251t171 218l-191 478h756v-260h-371l123 -302q-252 -115 -252 -378q0 -105 56.5 -174.5t136.5 -69.5q83 0 139.5 63t66.5 181h-174v251h664v-251h-225q1 -117 -38.5 -215.5t-105 -163t-149.5 -100t-174 -35.5q-214 0 -350 141.5t-136 365.5z" />
<glyph unicode="(" horiz-adv-x="651" d="M109 786q0 204 52.5 451.5t135.5 433.5l244 -84q-152 -398 -152 -803q0 -440 154 -929l-248 -70q-99 298 -142.5 519.5t-43.5 481.5z" />
<glyph unicode=")" horiz-adv-x="651" d="M109 -145q153 486 153 929q0 408 -151 803l243 84q83 -186 136 -433.5t53 -451.5q0 -259 -44 -480t-143 -521z" />
<glyph unicode="*" horiz-adv-x="1114" d="M133 1255l80 248l246 -114l-35 268h266l-35 -268l246 114l80 -248l-264 -53l182 -196l-213 -156l-129 237l-129 -237l-213 156l182 196z" />
<glyph unicode="+" horiz-adv-x="966" d="M78 526v256h270v275h266v-275h271v-256h-271v-276h-266v276h-270z" />
<glyph unicode="," horiz-adv-x="571" d="M133 -205v518h305l-78 -518h-227z" />
<glyph unicode="-" horiz-adv-x="714" d="M80 518v275h557v-275h-557z" />
<glyph unicode="." horiz-adv-x="569" d="M133 0v313h303v-313h-303z" />
<glyph unicode="/" horiz-adv-x="968" d="M68 -182l555 1757h276l-555 -1757h-276z" />
<glyph unicode="0" horiz-adv-x="1069" d="M72 715q0 340 121 534.5t342 194.5t341.5 -194.5t120.5 -534.5q0 -344 -120.5 -533.5t-341.5 -189.5t-342 190t-121 533zM360 715q0 -207 45 -328t130 -121q84 0 129 121t45 328q0 208 -46 329t-128 121t-128.5 -121t-46.5 -329z" />
<glyph unicode="1" horiz-adv-x="833" d="M80 1343l520 97v-1184h184v-256h-653v256h188v870l-206 -49z" />
<glyph unicode="2" horiz-adv-x="993" d="M37 0l348 555q129 203 170 298t41 165q0 72 -34.5 116t-92.5 44q-52 0 -92.5 -42.5t-69.5 -146.5l-254 150q78 159 182 234t244 75q98 0 177.5 -33.5t129.5 -90t76.5 -127.5t26.5 -148q0 -109 -46.5 -229.5t-162.5 -299.5l-164 -250h365v-270h-844z" />
<glyph unicode="3" horiz-adv-x="1021" d="M41 274l262 136q28 -75 73.5 -114.5t102.5 -39.5q70 0 120 54.5t50 133.5q0 120 -102.5 196.5t-272.5 76.5q-55 0 -131 -10l338 467h-334v253h818l-377 -516q163 -43 256.5 -165t93.5 -295q0 -98 -36.5 -185.5t-97.5 -149.5t-144.5 -98t-174.5 -36q-150 0 -263 75 t-181 217z" />
<glyph unicode="4" horiz-adv-x="1040" d="M45 270l291 1164h291q-27 -110 -121 -467t-115 -439h205v465h276v-465h111v-258h-111v-270h-276v270h-551z" />
<glyph unicode="5" horiz-adv-x="1054" d="M80 274l260 132q28 -74 75 -112t103 -38q68 0 118 58.5t50 148.5q0 102 -76 165.5t-194 63.5q-131 0 -269 -80l99 815h635v-258h-402l-33 -229q33 8 80 8q196 0 321.5 -134t125.5 -349q0 -135 -61 -246.5t-165.5 -174t-230.5 -62.5q-143 0 -255.5 73.5t-180.5 218.5z" />
<glyph unicode="6" horiz-adv-x="1093" d="M98 688q0 352 142.5 554t375.5 202q206 0 367 -199l-223 -180q-73 111 -166 111q-76 0 -137 -93.5t-74 -246.5q34 44 96.5 72t130.5 28q176 0 291 -126.5t115 -338.5q0 -140 -62 -251.5t-164 -171.5t-223 -60q-215 0 -342 177t-127 523zM397 463q0 -88 50 -147.5 t120 -59.5q66 0 116 60t50 147t-49.5 143t-116.5 56q-73 0 -121.5 -52.5t-48.5 -146.5z" />
<glyph unicode="7" horiz-adv-x="909" d="M53 1157v270h819l-512 -1427h-299l424 1157h-432z" />
<glyph unicode="8" horiz-adv-x="1079" d="M76 397q0 115 63 216t170 153q-79 57 -126.5 137.5t-47.5 167.5q0 162 116 270.5t286 108.5q179 0 295 -108t116 -259q0 -93 -47.5 -176t-134.5 -141q235 -133 235 -363q0 -82 -33 -158.5t-92 -136t-149.5 -95.5t-196.5 -36q-194 0 -324 120t-130 300zM362 406 q0 -70 49 -121.5t121 -51.5q78 0 127.5 50t49.5 116q0 108 -203 226q-73 -42 -108.5 -100.5t-35.5 -118.5zM414 1071q0 -45 35 -87t116 -95q52 42 77.5 90t25.5 90q0 54 -39 88.5t-94 34.5q-48 0 -84.5 -34.5t-36.5 -86.5z" />
<glyph unicode="9" horiz-adv-x="1079" d="M72 967q0 139 61.5 250t162 171t218.5 60q217 0 343 -175t126 -515q0 -234 -61.5 -407.5t-180.5 -268t-282 -94.5q-207 0 -377 194l225 195q73 -117 172 -117q84 0 143.5 94.5t67.5 235.5q-37 -44 -95 -68t-116 -24q-174 0 -290.5 130t-116.5 339zM344 967 q0 -89 49.5 -149t118.5 -60q70 0 118 56t48 153q0 87 -49.5 148t-116.5 61q-68 0 -118 -61t-50 -148z" />
<glyph unicode=":" horiz-adv-x="600" d="M147 0v313h306v-313h-306zM147 625v313h306v-313h-306z" />
<glyph unicode=";" horiz-adv-x="602" d="M147 -205v518h306l-76 -518h-230zM147 625v313h306v-313h-306z" />
<glyph unicode="&#x3c;" horiz-adv-x="993" d="M78 717q126 115 301 255t326 251l194 -193q-82 -58 -416 -313q304 -237 416 -318l-194 -192q-376 279 -627 510z" />
<glyph unicode="=" horiz-adv-x="1142" d="M109 328v268h927v-268h-927zM109 725v266h927v-266h-927z" />
<glyph unicode="&#x3e;" horiz-adv-x="993" d="M94 399q109 81 414 318q-343 262 -414 313l193 193q355 -260 626 -506q-255 -235 -626 -510z" />
<glyph unicode="?" horiz-adv-x="1011" d="M78 1145q151 307 448 307q192 0 319.5 -129t127.5 -315q0 -151 -90 -268t-248 -156v-181h-277v342q157 13 241.5 85t84.5 171q0 77 -49 130t-121 53q-135 0 -203 -176zM354 0v279h283v-279h-283z" />
<glyph unicode="@" horiz-adv-x="1904" d="M156 674q0 103 27 206t76.5 196.5t124.5 174.5t166 140t207 93t242 34q164 0 309.5 -54t248.5 -147t163 -221.5t60 -272.5q0 -120 -38 -222t-98 -166t-132.5 -100t-145.5 -36q-68 0 -128 32.5t-87 90.5q-41 -59 -107 -91t-145 -32q-121 0 -210 96.5t-89 257.5 q0 190 132 317.5t325 127.5q60 0 125.5 -17t111.5 -43v-407q0 -113 78 -113q51 0 95 84t44 205q0 193 -141.5 323t-374.5 130q-108 0 -210.5 -45.5t-180.5 -122.5t-125 -187t-47 -231q0 -162 80 -291t209 -197.5t278 -68.5q141 0 267 57l80 -227q-162 -78 -351 -78 q-179 0 -334.5 59t-266.5 163.5t-174.5 255t-63.5 327.5zM846 651q0 -72 24.5 -105.5t63.5 -33.5q48 0 80.5 43.5t32.5 110.5l2 217q-82 2 -142.5 -63.5t-60.5 -168.5z" />
<glyph unicode="A" horiz-adv-x="1081" d="M55 0q60 296 150 711q37 173 80.5 353.5t68.5 275.5l25 94h323q91 -335 175 -723l149 -711h-297l-41 215h-295l-41 -215h-297zM440 471h201q-24 157 -49 306.5t-38 220.5l-13 71q-48 -245 -101 -598z" />
<glyph unicode="B" horiz-adv-x="1097" d="M139 8v1409q165 25 299 25q262 0 403.5 -111.5t141.5 -300.5q0 -96 -48.5 -172t-129.5 -121q99 -39 157 -125t58 -188q0 -195 -139 -313.5t-412 -118.5q-202 0 -330 16zM418 250q16 -2 57 -2q246 0 246 184q0 76 -61.5 123t-176.5 47q-29 0 -65 -4v-348zM418 852 q18 -2 65 -2q103 0 158 45t55 121q0 74 -58 120t-161 46q-31 0 -59 -4v-326z" />
<glyph unicode="C" horiz-adv-x="1028" d="M80 729q0 122 26 233.5t72 197.5t106 150t132 98t147 34q123 0 232.5 -87t179.5 -263l-262 -138q-62 201 -152 201q-72 0 -132 -121.5t-60 -302.5q0 -215 56.5 -335t135.5 -120q41 0 77 42.5t57 95.5t34 112l262 -149q-67 -176 -183.5 -279.5t-244.5 -103.5 q-92 0 -177 47.5t-154 136.5t-110.5 232t-41.5 319z" />
<glyph unicode="D" horiz-adv-x="1097" d="M131 0v1434h236q316 0 484.5 -180.5t168.5 -532.5q0 -351 -161 -536t-447 -185h-281zM414 274q157 0 235 114t78 329q0 97 -18.5 175.5t-56 137.5t-98 91t-140.5 32v-879z" />
<glyph unicode="E" horiz-adv-x="958" d="M133 0v1434h739v-277h-460v-344h434v-278h-434v-259h460v-276h-739z" />
<glyph unicode="F" horiz-adv-x="899" d="M133 0v1434h711v-277h-430v-352h401v-279h-401v-526h-281z" />
<glyph unicode="G" horiz-adv-x="1130" d="M76 731q0 192 65.5 355.5t180.5 259.5t253 96q131 0 242 -87.5t176 -250.5l-258 -135q-30 97 -72.5 141.5t-87.5 44.5q-57 0 -104.5 -58t-74.5 -155.5t-27 -210.5q0 -223 62 -343t144 -120q73 0 131 76.5t62 192.5h-190v254h466q9 -77 9 -158q0 -143 -37.5 -264 t-102.5 -202.5t-152 -127t-186 -45.5q-79 0 -152 30t-136 91t-110 147.5t-74 207t-27 261.5z" />
<glyph unicode="H" horiz-adv-x="1165" d="M133 0v1434h287v-631h328v631h286v-1434h-286v516h-328v-516h-287z" />
<glyph unicode="I" horiz-adv-x="555" d="M133 0v1434h289v-1434h-289z" />
<glyph unicode="J" horiz-adv-x="825" d="M12 127l209 190q37 -55 92 -55q47 0 78 41.5t31 114.5v1016h285v-1004q0 -199 -112.5 -317.5t-281.5 -118.5q-159 0 -301 133z" />
<glyph unicode="K" horiz-adv-x="1118" d="M139 0v1434h281v-691l325 691h332l-342 -666l346 -768h-329l-207 522l-125 -239v-283h-281z" />
<glyph unicode="L" horiz-adv-x="841" d="M133 0v1434h287v-1155h399v-279h-686z" />
<glyph unicode="M" horiz-adv-x="1323" d="M139 0v1434h256l267 -627l266 627h256v-1434h-275v756l-247 -547l-248 547v-756h-275z" />
<glyph unicode="N" horiz-adv-x="1177" d="M145 0v1434h248l363 -772v772h276v-1434h-244l-366 762v-762h-277z" />
<glyph unicode="O" d="M78 715q0 202 64.5 369t177 262.5t247.5 95.5t247.5 -95.5t177.5 -262.5t65 -369q0 -205 -61.5 -369.5t-174 -258t-254.5 -93.5t-254 93.5t-173.5 258t-61.5 369.5zM369 711q0 -122 25 -222t70.5 -158.5t102.5 -58.5q87 0 143 126t56 313q0 123 -26 224.5t-71.5 159.5 t-101.5 58t-101.5 -58t-71 -159.5t-25.5 -224.5z" />
<glyph unicode="P" horiz-adv-x="1038" d="M131 0v1415q137 29 231 29q151 0 272.5 -41.5t201.5 -114.5t122.5 -172.5t42.5 -216.5q0 -230 -161 -380t-430 -150v-369h-279zM410 625q146 0 226.5 75.5t80.5 202.5q0 105 -80.5 181.5t-208.5 76.5h-18v-536z" />
<glyph unicode="Q" d="M78 715q0 202 64.5 369t177 262.5t247.5 95.5t247.5 -95.5t177.5 -262.5t65 -369q0 -256 -94.5 -444.5t-253.5 -250.5v-30q0 -39 20 -60.5t53 -21.5h123v-213q-105 -23 -162 -23q-143 0 -234 100.5t-91 250.5q-156 65 -248 252t-92 440zM369 711q0 -122 25 -222 t70.5 -158.5t102.5 -58.5q87 0 143 126t56 313q0 123 -26 224.5t-71.5 159.5t-101.5 58t-101.5 -58t-71 -159.5t-25.5 -224.5z" />
<glyph unicode="R" horiz-adv-x="1099" d="M131 0v1415q143 29 240 29q283 0 454.5 -149.5t171.5 -393.5q0 -121 -53 -229.5t-147 -179.5l225 -492h-320l-157 383q-59 -18 -135 -18v-365h-279zM410 625q153 15 230 83t77 197q0 102 -82 179t-213 77h-12v-536z" />
<glyph unicode="S" horiz-adv-x="958" d="M47 209l234 201q40 -73 88.5 -110.5t95.5 -37.5q52 0 88.5 37t36.5 90q0 54 -48.5 109t-152.5 129q-161 117 -226 210t-65 218q0 161 118.5 276t287.5 115q217 0 381 -207l-228 -184q-23 33 -42 55t-51 41.5t-66 19.5q-46 0 -79.5 -31.5t-33.5 -80.5q0 -45 37.5 -86.5 t136.5 -112.5q184 -133 256 -231.5t72 -231.5q0 -171 -124.5 -292t-297.5 -121q-115 0 -223.5 57t-194.5 168z" />
<glyph unicode="T" horiz-adv-x="903" d="M31 1157v277h841v-277h-276v-1157h-289v1157h-276z" />
<glyph unicode="U" horiz-adv-x="1118" d="M123 434v1000h291v-1010q0 -72 41.5 -116t103.5 -44t104 44t42 116v1010h290v-1000q0 -190 -123 -315t-313 -125t-313 125t-123 315z" />
<glyph unicode="V" horiz-adv-x="1097" d="M45 1434h315l189 -988l188 988h316l-348 -1434h-312z" />
<glyph unicode="W" horiz-adv-x="1671" d="M55 1434h318l149 -940l183 940h262l182 -940l149 940h318l-316 -1434h-288l-176 825l-177 -825h-288z" />
<glyph unicode="X" horiz-adv-x="1112" d="M31 0l358 741l-354 693h325l193 -418l174 418h326l-342 -697l368 -737h-331l-203 455l-189 -455h-325z" />
<glyph unicode="Y" horiz-adv-x="1126" d="M12 1434h330l221 -525l221 525h332l-405 -828v-606h-295v606z" />
<glyph unicode="Z" horiz-adv-x="983" d="M37 0l493 1159h-415v275h831l-487 -1160h407v-274h-829z" />
<glyph unicode="[" horiz-adv-x="710" d="M133 -164v1761h447v-241h-179v-1278h179v-242h-447z" />
<glyph unicode="\" horiz-adv-x="991" d="M78 1575h278l555 -1757h-278z" />
<glyph unicode="]" horiz-adv-x="710" d="M133 78h178v1278h-178v241h447v-1761h-447v242z" />
<glyph unicode="^" horiz-adv-x="1216" d="M236 1569l372 336l373 -336h-303l-70 80l-69 -80h-303z" />
<glyph unicode="_" horiz-adv-x="970" d="M80 -53h811v-273h-811v273z" />
<glyph unicode="`" horiz-adv-x="1136" d="M274 1798l271 115l180 -369h-248z" />
<glyph unicode="a" horiz-adv-x="1081" d="M55 0q60 296 150 711q37 173 80.5 353.5t68.5 275.5l25 94h323q91 -335 175 -723l149 -711h-297l-41 215h-295l-41 -215h-297zM440 471h201q-24 157 -49 306.5t-38 220.5l-13 71q-48 -245 -101 -598z" />
<glyph unicode="b" horiz-adv-x="1097" d="M139 8v1409q165 25 299 25q262 0 403.5 -111.5t141.5 -300.5q0 -96 -48.5 -172t-129.5 -121q99 -39 157 -125t58 -188q0 -195 -139 -313.5t-412 -118.5q-202 0 -330 16zM418 250q16 -2 57 -2q246 0 246 184q0 76 -61.5 123t-176.5 47q-29 0 -65 -4v-348zM418 852 q18 -2 65 -2q103 0 158 45t55 121q0 74 -58 120t-161 46q-31 0 -59 -4v-326z" />
<glyph unicode="c" horiz-adv-x="1028" d="M80 729q0 122 26 233.5t72 197.5t106 150t132 98t147 34q123 0 232.5 -87t179.5 -263l-262 -138q-62 201 -152 201q-72 0 -132 -121.5t-60 -302.5q0 -215 56.5 -335t135.5 -120q41 0 77 42.5t57 95.5t34 112l262 -149q-67 -176 -183.5 -279.5t-244.5 -103.5 q-92 0 -177 47.5t-154 136.5t-110.5 232t-41.5 319z" />
<glyph unicode="d" horiz-adv-x="1097" d="M131 0v1434h236q316 0 484.5 -180.5t168.5 -532.5q0 -351 -161 -536t-447 -185h-281zM414 274q157 0 235 114t78 329q0 97 -18.5 175.5t-56 137.5t-98 91t-140.5 32v-879z" />
<glyph unicode="e" horiz-adv-x="958" d="M133 0v1434h739v-277h-460v-344h434v-278h-434v-259h460v-276h-739z" />
<glyph unicode="f" horiz-adv-x="899" d="M133 0v1434h711v-277h-430v-352h401v-279h-401v-526h-281z" />
<glyph unicode="g" horiz-adv-x="1130" d="M76 731q0 192 65.5 355.5t180.5 259.5t253 96q131 0 242 -87.5t176 -250.5l-258 -135q-30 97 -72.5 141.5t-87.5 44.5q-57 0 -104.5 -58t-74.5 -155.5t-27 -210.5q0 -223 62 -343t144 -120q73 0 131 76.5t62 192.5h-190v254h466q9 -77 9 -158q0 -143 -37.5 -264 t-102.5 -202.5t-152 -127t-186 -45.5q-79 0 -152 30t-136 91t-110 147.5t-74 207t-27 261.5z" />
<glyph unicode="h" horiz-adv-x="1165" d="M133 0v1434h287v-631h328v631h286v-1434h-286v516h-328v-516h-287z" />
<glyph unicode="i" horiz-adv-x="555" d="M133 0v1434h289v-1434h-289z" />
<glyph unicode="j" horiz-adv-x="825" d="M12 127l209 190q37 -55 92 -55q47 0 78 41.5t31 114.5v1016h285v-1004q0 -199 -112.5 -317.5t-281.5 -118.5q-159 0 -301 133z" />
<glyph unicode="k" horiz-adv-x="1118" d="M139 0v1434h281v-691l325 691h332l-342 -666l346 -768h-329l-207 522l-125 -239v-283h-281z" />
<glyph unicode="l" horiz-adv-x="841" d="M133 0v1434h287v-1155h399v-279h-686z" />
<glyph unicode="m" horiz-adv-x="1323" d="M139 0v1434h256l267 -627l266 627h256v-1434h-275v756l-247 -547l-248 547v-756h-275z" />
<glyph unicode="n" horiz-adv-x="1177" d="M145 0v1434h248l363 -772v772h276v-1434h-244l-366 762v-762h-277z" />
<glyph unicode="o" d="M78 715q0 202 64.5 369t177 262.5t247.5 95.5t247.5 -95.5t177.5 -262.5t65 -369q0 -205 -61.5 -369.5t-174 -258t-254.5 -93.5t-254 93.5t-173.5 258t-61.5 369.5zM369 711q0 -122 25 -222t70.5 -158.5t102.5 -58.5q87 0 143 126t56 313q0 123 -26 224.5t-71.5 159.5 t-101.5 58t-101.5 -58t-71 -159.5t-25.5 -224.5z" />
<glyph unicode="p" horiz-adv-x="1038" d="M131 0v1415q137 29 231 29q151 0 272.5 -41.5t201.5 -114.5t122.5 -172.5t42.5 -216.5q0 -230 -161 -380t-430 -150v-369h-279zM410 625q146 0 226.5 75.5t80.5 202.5q0 105 -80.5 181.5t-208.5 76.5h-18v-536z" />
<glyph unicode="q" d="M78 715q0 202 64.5 369t177 262.5t247.5 95.5t247.5 -95.5t177.5 -262.5t65 -369q0 -256 -94.5 -444.5t-253.5 -250.5v-30q0 -39 20 -60.5t53 -21.5h123v-213q-105 -23 -162 -23q-143 0 -234 100.5t-91 250.5q-156 65 -248 252t-92 440zM369 711q0 -122 25 -222 t70.5 -158.5t102.5 -58.5q87 0 143 126t56 313q0 123 -26 224.5t-71.5 159.5t-101.5 58t-101.5 -58t-71 -159.5t-25.5 -224.5z" />
<glyph unicode="r" horiz-adv-x="1099" d="M131 0v1415q143 29 240 29q283 0 454.5 -149.5t171.5 -393.5q0 -121 -53 -229.5t-147 -179.5l225 -492h-320l-157 383q-59 -18 -135 -18v-365h-279zM410 625q153 15 230 83t77 197q0 102 -82 179t-213 77h-12v-536z" />
<glyph unicode="s" horiz-adv-x="958" d="M47 209l234 201q40 -73 88.5 -110.5t95.5 -37.5q52 0 88.5 37t36.5 90q0 54 -48.5 109t-152.5 129q-161 117 -226 210t-65 218q0 161 118.5 276t287.5 115q217 0 381 -207l-228 -184q-23 33 -42 55t-51 41.5t-66 19.5q-46 0 -79.5 -31.5t-33.5 -80.5q0 -45 37.5 -86.5 t136.5 -112.5q184 -133 256 -231.5t72 -231.5q0 -171 -124.5 -292t-297.5 -121q-115 0 -223.5 57t-194.5 168z" />
<glyph unicode="t" horiz-adv-x="903" d="M31 1157v277h841v-277h-276v-1157h-289v1157h-276z" />
<glyph unicode="u" horiz-adv-x="1118" d="M123 434v1000h291v-1010q0 -72 41.5 -116t103.5 -44t104 44t42 116v1010h290v-1000q0 -190 -123 -315t-313 -125t-313 125t-123 315z" />
<glyph unicode="v" horiz-adv-x="1097" d="M45 1434h315l189 -988l188 988h316l-348 -1434h-312z" />
<glyph unicode="w" horiz-adv-x="1671" d="M55 1434h318l149 -940l183 940h262l182 -940l149 940h318l-316 -1434h-288l-176 825l-177 -825h-288z" />
<glyph unicode="x" horiz-adv-x="1112" d="M31 0l358 741l-354 693h325l193 -418l174 418h326l-342 -697l368 -737h-331l-203 455l-189 -455h-325z" />
<glyph unicode="y" horiz-adv-x="1126" d="M12 1434h330l221 -525l221 525h332l-405 -828v-606h-295v606z" />
<glyph unicode="z" horiz-adv-x="983" d="M37 0l493 1159h-415v275h831l-487 -1160h407v-274h-829z" />
<glyph unicode="{" horiz-adv-x="720" d="M78 711q70 38 115 109t45 155q0 65 -19.5 181t-19.5 175q0 121 51.5 213t148.5 146l172 -140q-88 -85 -88 -229q0 -51 17.5 -155t17.5 -162q0 -92 -34.5 -170t-92.5 -123q58 -45 92.5 -123t34.5 -170q0 -58 -17.5 -162.5t-17.5 -155.5q0 -144 88 -229l-172 -137 q-200 112 -200 356q0 59 19.5 175t19.5 179q0 85 -45 157t-115 110z" />
<glyph unicode="|" horiz-adv-x="798" d="M266 -182v1757h266v-1757h-266z" />
<glyph unicode="}" horiz-adv-x="720" d="M147 -129q86 83 86 229q0 51 -16 155.5t-16 162.5q0 92 34.5 170t92.5 123q-58 45 -92.5 123t-34.5 170q0 58 16 162t16 155q0 146 -86 229l172 140q201 -114 201 -359q0 -59 -19.5 -175t-19.5 -181q0 -83 44.5 -154.5t113.5 -109.5q-69 -38 -113.5 -110t-44.5 -157 q0 -63 19.5 -179t19.5 -175q0 -242 -201 -356z" />
<glyph unicode="~" horiz-adv-x="1705" />
<glyph unicode="&#xa1;" horiz-adv-x="628" d="M215 1155v279h281v-279h-281zM217 2v1028h277v-1028h-277z" />
<glyph unicode="&#xa2;" horiz-adv-x="868" d="M98 707q0 125 75 227.5t198 138.5v195l202 -37v-156q79 -22 144 -76t102 -129l-231 -96q-17 39 -48 62.5t-65 23.5q-56 0 -92.5 -44t-36.5 -107q0 -72 39 -118t92 -46q37 0 72 27.5t49 76.5l233 -92q-41 -90 -108 -148.5t-152 -78.5v-201l-202 37v168q-121 34 -196 136 t-75 237z" />
<glyph unicode="&#xa3;" horiz-adv-x="1095" d="M147 500l37 209h103q-90 177 -90 333q0 78 29 151.5t80 130t126 90.5t162 34q137 0 240 -80.5t182 -251.5l-256 -158q-32 116 -71.5 164.5t-88.5 48.5q-54 0 -87.5 -42t-33.5 -107t25.5 -132.5t87.5 -180.5h379l-39 -209h-268q4 -20 4 -35q0 -105 -66 -197h361v-268h-799 v268h63q67 0 112.5 47.5t45.5 122.5q0 32 -6 62h-232z" />
<glyph unicode="&#xa4;" horiz-adv-x="1705" />
<glyph unicode="&#xa5;" horiz-adv-x="1214" d="M90 1434h332l221 -527l219 527h332l-336 -668h272l-28 -148h-311v-83h342l-29 -148h-313v-387h-295v387h-340l26 148h314v83h-342l28 148h244z" />
<glyph unicode="&#xa7;" horiz-adv-x="993" d="M98 193l232 194q30 -54 79.5 -90.5t106.5 -36.5q39 0 66.5 18t27.5 44q0 32 -31.5 53.5t-123.5 56.5q-188 70 -261 153t-73 199q0 35 16 81.5t39 82.5q-51 68 -51 164q0 139 110.5 236.5t274.5 97.5q204 0 369 -215l-217 -170q-90 108 -177 108q-38 0 -60 -18.5 t-22 -44.5q0 -34 33 -60t123 -59q188 -70 261 -152.5t73 -197.5q0 -81 -55 -164q51 -66 51 -158q0 -139 -111 -235t-286 -96q-95 0 -203 51.5t-191 157.5zM324 815q0 -90 225 -176q75 -28 139 -66q4 13 4 23q0 90 -225 176q-75 28 -139 66q-4 -13 -4 -23z" />
<glyph unicode="&#xa8;" horiz-adv-x="1224" d="M258 1563v227h287v-227h-287zM680 1563v227h287v-227h-287z" />
<glyph unicode="&#xa9;" horiz-adv-x="1753" d="M166 715q0 148 56.5 283.5t152 233t227 155t275.5 57.5q194 0 358 -97.5t259 -265.5t95 -366t-95 -365.5t-259 -264.5t-358 -97q-144 0 -275.5 57.5t-227 154.5t-152 232t-56.5 283zM328 715q0 -157 73.5 -289.5t200 -209.5t275.5 -77q151 0 277.5 77t199.5 209.5 t73 289.5t-73 290t-199.5 210t-277.5 77q-112 0 -213.5 -45.5t-175 -123t-117 -184.5t-43.5 -224zM518 719q0 97 46.5 182.5t133 139t193.5 53.5t198 -58.5t136 -152.5l-228 -97q-15 38 -45 61t-63 23q-56 0 -92.5 -43t-36.5 -106q0 -71 38 -115.5t91 -44.5q38 0 71.5 27.5 t47.5 77.5l229 -91q-53 -114 -141.5 -175.5t-202.5 -61.5q-159 0 -267 109.5t-108 271.5z" />
<glyph unicode="&#xab;" horiz-adv-x="1032" d="M78 719q22 50 55 116t51 101t66.5 125t54.5 102l230 -90q-31 -58 -183 -354q116 -231 183 -354l-234 -97q-162 313 -223 451zM496 719q65 148 227 444l229 -90q-13 -23 -182 -354q130 -258 182 -354l-233 -97q-162 313 -223 451z" />
<glyph unicode="&#xad;" horiz-adv-x="714" d="M80 518v275h557v-275h-557z" />
<glyph unicode="&#xae;" horiz-adv-x="1753" d="M164 715q0 198 95.5 366t259 265.5t355.5 97.5q146 0 278 -57.5t227 -155.5t151.5 -232.5t56.5 -283.5q0 -148 -56.5 -283t-151.5 -232t-227 -154.5t-278 -57.5q-192 0 -355.5 97t-259 264.5t-95.5 365.5zM326 715q0 -157 73.5 -289.5t199.5 -209.5t275 -77q151 0 278 77 t200 209.5t73 289.5q0 117 -43.5 223.5t-116.5 183.5t-175.5 122.5t-215.5 45.5q-112 0 -213.5 -45.5t-174.5 -122.5t-116.5 -183.5t-43.5 -223.5zM590 373v698q113 41 227 41q205 0 304.5 -78.5t99.5 -202.5q0 -119 -99 -202l125 -256h-268l-68 174q-30 -4 -53 -4t-35 2 v-172h-233zM823 743q16 -4 51 -4q51 0 82 21.5t31 58.5q0 34 -28 56t-80 22q-16 0 -30 -1.5t-20 -3.5l-6 -1v-148z" />
<glyph unicode="&#xb0;" horiz-adv-x="894" d="M133 1112q0 140 100.5 241t241.5 101t241.5 -101t100.5 -241t-100.5 -241t-241.5 -101t-241.5 101t-100.5 241zM336 1112q0 -58 40 -98.5t99 -40.5t99 40.5t40 98.5q0 57 -40 96t-99 39t-99 -39t-40 -96z" />
<glyph unicode="&#xb2;" horiz-adv-x="841" d="M123 528l264 428q86 137 107.5 186.5t23.5 92.5q0 31 -17.5 54.5t-43.5 23.5q-72 0 -109 -160l-207 129q109 252 316 252q133 0 219 -85.5t86 -215.5q0 -76 -32 -152t-116 -198l-86 -125h224v-230h-629z" />
<glyph unicode="&#xb3;" horiz-adv-x="892" d="M139 752l215 100q34 -94 109 -94q43 0 68.5 31.5t25.5 76.5q0 64 -59.5 107t-159.5 43q-62 0 -109 -12l193 284h-211v219h602l-225 -338q102 -45 158.5 -123.5t56.5 -179.5q0 -152 -95 -250t-245 -98q-105 0 -191.5 60.5t-132.5 173.5z" />
<glyph unicode="&#xb4;" horiz-adv-x="667" d="M96 1544l183 369l270 -115l-205 -254h-248z" />
<glyph unicode="&#xb8;" horiz-adv-x="1165" d="M334 -367l92 142q66 -56 135 -56q64 0 64 48q0 56 -129 59v223h196v-127q63 -15 99 -62t36 -116q0 -94 -66 -157.5t-177 -63.5q-67 0 -137 31t-113 79z" />
<glyph unicode="&#xb9;" horiz-adv-x="645" d="M156 1468l409 72v-1010h-246v740l-135 -31z" />
<glyph unicode="&#xbb;" horiz-adv-x="1032" d="M78 365q52 96 182 354q-169 331 -182 354l231 90q176 -331 226 -444q-55 -124 -224 -451zM496 365q52 96 182 354q-169 331 -182 354l231 90q170 -320 225 -444q-61 -138 -223 -451z" />
<glyph unicode="&#xbc;" horiz-adv-x="2019" d="M174 1466l410 72v-1008h-246v740l-135 -31zM532 -223l555 1757h240l-555 -1757h-240zM1194 176l192 828h238q-125 -543 -154 -613h113v96l27 187h200v-283h84v-215h-77v-176h-240v176h-383z" />
<glyph unicode="&#xbd;" horiz-adv-x="1974" d="M174 1466l410 72v-1008h-246v740l-135 -31zM532 -223l555 1757h240l-555 -1757h-240zM1210 0l263 428q90 148 111.5 193t21.5 84q0 33 -18 55t-46 22q-72 0 -106 -159l-209 131q109 250 315 250q134 0 220.5 -86t86.5 -216q0 -91 -49 -187t-186 -286h225v-229h-629z" />
<glyph unicode="&#xbe;" horiz-adv-x="2179" d="M174 735l213 99q36 -95 109 -95q43 0 68.5 32.5t25.5 80.5q0 66 -60 111t-159 45q-52 0 -109 -13l191 287h-207v219h600l-225 -340q101 -43 158 -123.5t57 -185.5q0 -154 -96 -253t-244 -99q-104 0 -190.5 62t-131.5 173zM692 -223l555 1757h240l-555 -1757h-240z M1354 176l192 828h238q-125 -543 -154 -613h113v96l26 187h201v-283h84v-215h-78v-176h-239v176h-383z" />
<glyph unicode="&#xbf;" horiz-adv-x="1011" d="M78 291l233 137q68 -176 203 -176q72 0 121 52.5t49 129.5q0 99 -84.5 171t-241.5 85v342h277v-180q158 -39 248 -156t90 -268q0 -186 -127.5 -315t-319.5 -129q-297 0 -448 307zM354 1157v279h283v-279h-283z" />
<glyph unicode="&#xc0;" horiz-adv-x="1081" d="M55 0q60 296 150 711q37 173 80.5 353.5t68.5 275.5l25 94h323q91 -335 175 -723l149 -711h-297l-41 215h-295l-41 -215h-297zM211 1798l268 115l183 -369h-248zM440 471h201q-24 157 -49 306.5t-38 220.5l-13 71q-48 -245 -101 -598z" />
<glyph unicode="&#xc1;" horiz-adv-x="1081" d="M55 0q60 296 150 711q37 173 80.5 353.5t68.5 275.5l25 94h323q91 -335 175 -723l149 -711h-297l-41 215h-295l-41 -215h-297zM438 1544l180 369l271 -115l-203 -254h-248zM440 471h201q-24 157 -49 306.5t-38 220.5l-13 71q-48 -245 -101 -598z" />
<glyph unicode="&#xc2;" horiz-adv-x="1081" d="M55 0q60 296 150 711q37 173 80.5 353.5t68.5 275.5l25 94h323q91 -335 175 -723l149 -711h-297l-41 215h-295l-41 -215h-297zM168 1569l373 336l372 -336h-303l-69 80l-70 -80h-303zM440 471h201q-24 157 -49 306.5t-38 220.5l-13 71q-48 -245 -101 -598z" />
<glyph unicode="&#xc3;" horiz-adv-x="1081" d="M55 0q60 296 150 711q37 173 80.5 353.5t68.5 275.5l25 94h323q91 -335 175 -723l149 -711h-297l-41 215h-295l-41 -215h-297zM225 1667q0 88 52.5 149.5t130.5 61.5q55 0 129 -34t104 -34q60 0 66 72h135q16 -50 16 -104q0 -87 -52.5 -149t-129.5 -62q-54 0 -129 34.5 t-105 34.5q-59 0 -65 -71h-135q-17 44 -17 102zM440 471h201q-24 157 -49 306.5t-38 220.5l-13 71q-48 -245 -101 -598z" />
<glyph unicode="&#xc4;" horiz-adv-x="1081" d="M55 0q60 296 150 711q37 173 80.5 353.5t68.5 275.5l25 94h323q91 -335 175 -723l149 -711h-297l-41 215h-295l-41 -215h-297zM186 1563v227h287v-227h-287zM440 471h201q-24 157 -49 306.5t-38 220.5l-13 71q-48 -245 -101 -598zM608 1563v227h287v-227h-287z" />
<glyph unicode="&#xc5;" horiz-adv-x="1085" d="M55 0q60 296 150 711q85 386 135 567q-109 89 -109 238q0 127 91 218t217 91q127 0 218 -90.5t91 -218.5q0 -135 -105 -230q1 -3 21 -84t51 -211t64 -280l151 -711h-299l-41 215h-297q-11 -55 -24.5 -131t-14.5 -84h-299zM440 471h203q-24 157 -49 306.5t-38 220.5 l-13 71q-50 -245 -103 -598zM440 1516q0 -41 29.5 -70t69.5 -29q41 0 69.5 29t28.5 70t-28.5 69.5t-69.5 28.5q-40 0 -69.5 -28.5t-29.5 -69.5z" />
<glyph unicode="&#xc6;" horiz-adv-x="1603" d="M18 0q499 984 762 1434h738v-277h-461v-346h434v-279h-434v-258h461v-274h-740v215h-321l-99 -215h-340zM582 471h196v412q-68 -135 -196 -412z" />
<glyph unicode="&#xc7;" horiz-adv-x="1032" d="M80 729q0 122 26 233.5t72 197.5t106 150t132 98t147 34q123 0 232.5 -87t179.5 -263l-262 -138q-62 201 -152 201q-72 0 -132 -121.5t-60 -302.5q0 -215 56.5 -335t135.5 -120q41 0 77 42.5t57 95.5t34 112l262 -149q-57 -147 -148 -245.5t-196 -127.5v-82 q63 -15 99 -62t36 -116q0 -94 -65 -157.5t-176 -63.5q-68 0 -138.5 31t-113.5 79l94 142q66 -56 133 -56q66 0 66 48q0 56 -131 59v186q-160 53 -265.5 239t-105.5 478z" />
<glyph unicode="&#xc8;" horiz-adv-x="960" d="M133 0v1434h741v-277h-462v-346h436v-279h-436v-258h462v-274h-741zM252 1798l268 115l182 -369h-247z" />
<glyph unicode="&#xc9;" horiz-adv-x="960" d="M133 0v1434h741v-277h-462v-346h436v-279h-436v-258h462v-274h-741zM330 1544l182 369l268 -115l-202 -254h-248z" />
<glyph unicode="&#xca;" horiz-adv-x="964" d="M133 1569l373 336l373 -336h-304l-69 80l-70 -80h-303zM135 0v1434h742v-277h-463v-346h436v-279h-436v-258h463v-274h-742z" />
<glyph unicode="&#xcb;" horiz-adv-x="958" d="M133 0v1434h739v-277h-460v-344h434v-278h-434v-259h460v-276h-739zM147 1563v227h287v-227h-287zM569 1563v227h287v-227h-287z" />
<glyph unicode="&#xcc;" horiz-adv-x="555" d="M-18 1798l268 115l182 -369h-248zM131 0v1434h289v-1434h-289z" />
<glyph unicode="&#xcd;" horiz-adv-x="555" d="M123 1544l180 369l270 -115l-202 -254h-248zM131 0v1434h289v-1434h-289z" />
<glyph unicode="&#xce;" horiz-adv-x="561" d="M-92 1569l373 336l372 -336h-303l-69 80l-70 -80h-303zM137 0v1434h289v-1434h-289z" />
<glyph unicode="&#xcf;" horiz-adv-x="557" d="M-76 1563v227h287v-227h-287zM135 0v1434h289v-1434h-289zM346 1563v227h287v-227h-287z" />
<glyph unicode="&#xd1;" horiz-adv-x="1177" d="M145 0v1434h248l363 -772v772h276v-1434h-244l-366 762v-762h-277zM276 1667q0 88 52.5 149.5t130.5 61.5q55 0 129 -34t104 -34q60 0 66 72h135q16 -50 16 -104q0 -87 -52.5 -149t-129.5 -62q-54 0 -128.5 34.5t-104.5 34.5q-60 0 -66 -71h-135q-17 44 -17 102z" />
<glyph unicode="&#xd2;" d="M78 715q0 202 64.5 369t177 262.5t247.5 95.5t247.5 -95.5t177.5 -262.5t65 -369q0 -205 -61.5 -369.5t-174 -258t-254.5 -93.5t-254 93.5t-173.5 258t-61.5 369.5zM250 1798l268 115l182 -369h-247zM369 711q0 -122 25 -222t70.5 -158.5t102.5 -58.5q87 0 143 126 t56 313q0 123 -26 224.5t-71.5 159.5t-101.5 58t-101.5 -58t-71 -159.5t-25.5 -224.5z" />
<glyph unicode="&#xd3;" d="M78 715q0 202 64.5 369t177 262.5t247.5 95.5t247.5 -95.5t177.5 -262.5t65 -369q0 -205 -61.5 -369.5t-174 -258t-254.5 -93.5t-254 93.5t-173.5 258t-61.5 369.5zM369 711q0 -122 25 -222t70.5 -158.5t102.5 -58.5q87 0 143 126t56 313q0 123 -26 224.5t-71.5 159.5 t-101.5 58t-101.5 -58t-71 -159.5t-25.5 -224.5zM438 1544l183 369l268 -115l-203 -254h-248z" />
<glyph unicode="&#xd4;" d="M78 715q0 202 64.5 369t177 262.5t247.5 95.5t247.5 -95.5t177.5 -262.5t65 -369q0 -205 -61.5 -369.5t-174 -258t-254.5 -93.5t-254 93.5t-173.5 258t-61.5 369.5zM195 1569l372 336l373 -336h-303l-70 80l-69 -80h-303zM369 711q0 -122 25 -222t70.5 -158.5 t102.5 -58.5q87 0 143 126t56 313q0 123 -26 224.5t-71.5 159.5t-101.5 58t-101.5 -58t-71 -159.5t-25.5 -224.5z" />
<glyph unicode="&#xd5;" d="M78 715q0 202 64.5 369t177 262.5t247.5 95.5t247.5 -95.5t177.5 -262.5t65 -369q0 -205 -61.5 -369.5t-174 -258t-254.5 -93.5t-254 93.5t-173.5 258t-61.5 369.5zM252 1667q0 88 52.5 149.5t129.5 61.5q55 0 129.5 -34t104.5 -34q59 0 65 72h135q17 -53 17 -104 q0 -87 -53 -149t-130 -62q-54 0 -128.5 34.5t-104.5 34.5q-60 0 -66 -71h-135q-16 41 -16 102zM369 711q0 -122 25 -222t70.5 -158.5t102.5 -58.5q87 0 143 126t56 313q0 123 -26 224.5t-71.5 159.5t-101.5 58t-101.5 -58t-71 -159.5t-25.5 -224.5z" />
<glyph unicode="&#xd6;" d="M78 715q0 202 64.5 369t177 262.5t247.5 95.5t247.5 -95.5t177.5 -262.5t65 -369q0 -205 -61.5 -369.5t-174 -258t-254.5 -93.5t-254 93.5t-173.5 258t-61.5 369.5zM213 1563v227h287v-227h-287zM369 711q0 -122 25 -222t70.5 -158.5t102.5 -58.5q87 0 143 126t56 313 q0 123 -26 224.5t-71.5 159.5t-101.5 58t-101.5 -58t-71 -159.5t-25.5 -224.5zM635 1563v227h287v-227h-287z" />
<glyph unicode="&#xd9;" horiz-adv-x="1118" d="M123 434v1000h291v-1010q0 -72 41.5 -116t103.5 -44t104 44t42 116v1010h290v-1000q0 -190 -123 -315t-313 -125t-313 125t-123 315zM258 1798l270 115l181 -369h-246z" />
<glyph unicode="&#xda;" horiz-adv-x="1118" d="M123 434v1000h291v-1010q0 -72 41.5 -116t103.5 -44t104 44t42 116v1010h290v-1000q0 -190 -123 -315t-313 -125t-313 125t-123 315zM410 1544l182 369l268 -115l-203 -254h-247z" />
<glyph unicode="&#xdb;" horiz-adv-x="1118" d="M123 434v1000h291v-1010q0 -72 41.5 -116t103.5 -44t104 44t42 116v1010h290v-1000q0 -190 -123 -315t-313 -125t-313 125t-123 315zM186 1569l373 336l373 -336h-303l-70 80l-70 -80h-303z" />
<glyph unicode="&#xdc;" horiz-adv-x="1118" d="M123 434v1000h291v-1010q0 -72 41.5 -116t103.5 -44t104 44t42 116v1010h290v-1000q0 -190 -123 -315t-313 -125t-313 125t-123 315zM205 1563v227h287v-227h-287zM627 1563v227h286v-227h-286z" />
<glyph unicode="&#xdd;" horiz-adv-x="1126" d="M12 1434h332l221 -527l219 527h332l-403 -830v-604h-295v604zM440 1544l183 369l270 -115l-205 -254h-248z" />
<glyph unicode="&#xdf;" horiz-adv-x="1140" d="M123 0v995q0 208 117.5 329.5t300.5 121.5q185 0 301 -112.5t116 -272.5q0 -57 -21 -111.5t-46.5 -88.5t-46.5 -71t-21 -63q0 -23 25.5 -46.5t62 -49t73 -59t62 -89.5t25.5 -127q0 -163 -119 -264.5t-317 -101.5q-53 0 -127 12v272q74 -18 127 -18q65 0 103 28.5t38 71.5 q0 29 -25.5 56t-62 52.5t-73 56t-62 78.5t-25.5 108q0 52 21.5 104.5t47.5 88t47.5 78t21.5 75.5q0 52 -34 82t-91 30q-55 0 -92 -47.5t-37 -116.5v-1001h-289z" />
<glyph unicode="&#xe0;" horiz-adv-x="1081" d="M55 0q60 296 150 711q37 173 80.5 353.5t68.5 275.5l25 94h323q91 -335 175 -723l149 -711h-297l-41 215h-295l-41 -215h-297zM211 1798l268 115l183 -369h-248zM440 471h201q-24 157 -49 306.5t-38 220.5l-13 71q-48 -245 -101 -598z" />
<glyph unicode="&#xe1;" horiz-adv-x="1081" d="M55 0q60 296 150 711q37 173 80.5 353.5t68.5 275.5l25 94h323q91 -335 175 -723l149 -711h-297l-41 215h-295l-41 -215h-297zM438 1544l180 369l271 -115l-203 -254h-248zM440 471h201q-24 157 -49 306.5t-38 220.5l-13 71q-48 -245 -101 -598z" />
<glyph unicode="&#xe2;" horiz-adv-x="1081" d="M55 0q60 296 150 711q37 173 80.5 353.5t68.5 275.5l25 94h323q91 -335 175 -723l149 -711h-297l-41 215h-295l-41 -215h-297zM168 1569l373 336l372 -336h-303l-69 80l-70 -80h-303zM440 471h201q-24 157 -49 306.5t-38 220.5l-13 71q-48 -245 -101 -598z" />
<glyph unicode="&#xe3;" horiz-adv-x="1081" d="M55 0q60 296 150 711q37 173 80.5 353.5t68.5 275.5l25 94h323q91 -335 175 -723l149 -711h-297l-41 215h-295l-41 -215h-297zM225 1667q0 88 52.5 149.5t130.5 61.5q55 0 129 -34t104 -34q60 0 66 72h135q16 -50 16 -104q0 -87 -52.5 -149t-129.5 -62q-54 0 -129 34.5 t-105 34.5q-59 0 -65 -71h-135q-17 44 -17 102zM440 471h201q-24 157 -49 306.5t-38 220.5l-13 71q-48 -245 -101 -598z" />
<glyph unicode="&#xe4;" horiz-adv-x="1081" d="M55 0q60 296 150 711q37 173 80.5 353.5t68.5 275.5l25 94h323q91 -335 175 -723l149 -711h-297l-41 215h-295l-41 -215h-297zM186 1563v227h287v-227h-287zM440 471h201q-24 157 -49 306.5t-38 220.5l-13 71q-48 -245 -101 -598zM608 1563v227h287v-227h-287z" />
<glyph unicode="&#xe5;" horiz-adv-x="1085" d="M55 0q60 296 150 711q85 386 135 567q-109 89 -109 238q0 127 91 218t217 91q127 0 218 -90.5t91 -218.5q0 -135 -105 -230q1 -3 21 -84t51 -211t64 -280l151 -711h-299l-41 215h-297q-11 -55 -24.5 -131t-14.5 -84h-299zM440 471h203q-24 157 -49 306.5t-38 220.5 l-13 71q-50 -245 -103 -598zM440 1516q0 -41 29.5 -70t69.5 -29q41 0 69.5 29t28.5 70t-28.5 69.5t-69.5 28.5q-40 0 -69.5 -28.5t-29.5 -69.5z" />
<glyph unicode="&#xe6;" horiz-adv-x="1603" d="M18 0q499 984 762 1434h738v-277h-461v-346h434v-279h-434v-258h461v-274h-740v215h-321l-99 -215h-340zM582 471h196v412q-68 -135 -196 -412z" />
<glyph unicode="&#xe7;" horiz-adv-x="1032" d="M80 729q0 122 26 233.5t72 197.5t106 150t132 98t147 34q123 0 232.5 -87t179.5 -263l-262 -138q-62 201 -152 201q-72 0 -132 -121.5t-60 -302.5q0 -215 56.5 -335t135.5 -120q41 0 77 42.5t57 95.5t34 112l262 -149q-57 -147 -148 -245.5t-196 -127.5v-82 q63 -15 99 -62t36 -116q0 -94 -65 -157.5t-176 -63.5q-68 0 -138.5 31t-113.5 79l94 142q66 -56 133 -56q66 0 66 48q0 56 -131 59v186q-160 53 -265.5 239t-105.5 478z" />
<glyph unicode="&#xe8;" horiz-adv-x="960" d="M133 0v1434h741v-277h-462v-346h436v-279h-436v-258h462v-274h-741zM252 1798l268 115l182 -369h-247z" />
<glyph unicode="&#xe9;" horiz-adv-x="960" d="M133 0v1434h741v-277h-462v-346h436v-279h-436v-258h462v-274h-741zM330 1544l182 369l268 -115l-202 -254h-248z" />
<glyph unicode="&#xea;" horiz-adv-x="964" d="M133 1569l373 336l373 -336h-304l-69 80l-70 -80h-303zM135 0v1434h742v-277h-463v-346h436v-279h-436v-258h463v-274h-742z" />
<glyph unicode="&#xeb;" horiz-adv-x="958" d="M133 0v1434h739v-277h-460v-344h434v-278h-434v-259h460v-276h-739zM147 1563v227h287v-227h-287zM569 1563v227h287v-227h-287z" />
<glyph unicode="&#xec;" horiz-adv-x="555" d="M-18 1798l268 115l182 -369h-248zM131 0v1434h289v-1434h-289z" />
<glyph unicode="&#xed;" horiz-adv-x="555" d="M123 1544l180 369l270 -115l-202 -254h-248zM131 0v1434h289v-1434h-289z" />
<glyph unicode="&#xee;" horiz-adv-x="561" d="M-92 1569l373 336l372 -336h-303l-69 80l-70 -80h-303zM137 0v1434h289v-1434h-289z" />
<glyph unicode="&#xef;" horiz-adv-x="557" d="M-76 1563v227h287v-227h-287zM135 0v1434h289v-1434h-289zM346 1563v227h287v-227h-287z" />
<glyph unicode="&#xf1;" horiz-adv-x="1177" d="M145 0v1434h248l363 -772v772h276v-1434h-244l-366 762v-762h-277zM276 1667q0 88 52.5 149.5t130.5 61.5q55 0 129 -34t104 -34q60 0 66 72h135q16 -50 16 -104q0 -87 -52.5 -149t-129.5 -62q-54 0 -128.5 34.5t-104.5 34.5q-60 0 -66 -71h-135q-17 44 -17 102z" />
<glyph unicode="&#xf2;" d="M78 715q0 202 64.5 369t177 262.5t247.5 95.5t247.5 -95.5t177.5 -262.5t65 -369q0 -205 -61.5 -369.5t-174 -258t-254.5 -93.5t-254 93.5t-173.5 258t-61.5 369.5zM250 1798l268 115l182 -369h-247zM369 711q0 -122 25 -222t70.5 -158.5t102.5 -58.5q87 0 143 126 t56 313q0 123 -26 224.5t-71.5 159.5t-101.5 58t-101.5 -58t-71 -159.5t-25.5 -224.5z" />
<glyph unicode="&#xf3;" d="M78 715q0 202 64.5 369t177 262.5t247.5 95.5t247.5 -95.5t177.5 -262.5t65 -369q0 -205 -61.5 -369.5t-174 -258t-254.5 -93.5t-254 93.5t-173.5 258t-61.5 369.5zM369 711q0 -122 25 -222t70.5 -158.5t102.5 -58.5q87 0 143 126t56 313q0 123 -26 224.5t-71.5 159.5 t-101.5 58t-101.5 -58t-71 -159.5t-25.5 -224.5zM438 1544l183 369l268 -115l-203 -254h-248z" />
<glyph unicode="&#xf4;" d="M78 715q0 202 64.5 369t177 262.5t247.5 95.5t247.5 -95.5t177.5 -262.5t65 -369q0 -205 -61.5 -369.5t-174 -258t-254.5 -93.5t-254 93.5t-173.5 258t-61.5 369.5zM195 1569l372 336l373 -336h-303l-70 80l-69 -80h-303zM369 711q0 -122 25 -222t70.5 -158.5 t102.5 -58.5q87 0 143 126t56 313q0 123 -26 224.5t-71.5 159.5t-101.5 58t-101.5 -58t-71 -159.5t-25.5 -224.5z" />
<glyph unicode="&#xf5;" d="M78 715q0 202 64.5 369t177 262.5t247.5 95.5t247.5 -95.5t177.5 -262.5t65 -369q0 -205 -61.5 -369.5t-174 -258t-254.5 -93.5t-254 93.5t-173.5 258t-61.5 369.5zM252 1667q0 88 52.5 149.5t129.5 61.5q55 0 129.5 -34t104.5 -34q59 0 65 72h135q17 -53 17 -104 q0 -87 -53 -149t-130 -62q-54 0 -128.5 34.5t-104.5 34.5q-60 0 -66 -71h-135q-16 41 -16 102zM369 711q0 -122 25 -222t70.5 -158.5t102.5 -58.5q87 0 143 126t56 313q0 123 -26 224.5t-71.5 159.5t-101.5 58t-101.5 -58t-71 -159.5t-25.5 -224.5z" />
<glyph unicode="&#xf6;" d="M78 715q0 202 64.5 369t177 262.5t247.5 95.5t247.5 -95.5t177.5 -262.5t65 -369q0 -205 -61.5 -369.5t-174 -258t-254.5 -93.5t-254 93.5t-173.5 258t-61.5 369.5zM213 1563v227h287v-227h-287zM369 711q0 -122 25 -222t70.5 -158.5t102.5 -58.5q87 0 143 126t56 313 q0 123 -26 224.5t-71.5 159.5t-101.5 58t-101.5 -58t-71 -159.5t-25.5 -224.5zM635 1563v227h287v-227h-287z" />
<glyph unicode="&#xf9;" horiz-adv-x="1118" d="M123 434v1000h291v-1010q0 -72 41.5 -116t103.5 -44t104 44t42 116v1010h290v-1000q0 -190 -123 -315t-313 -125t-313 125t-123 315zM258 1798l270 115l181 -369h-246z" />
<glyph unicode="&#xfa;" horiz-adv-x="1118" d="M123 434v1000h291v-1010q0 -72 41.5 -116t103.5 -44t104 44t42 116v1010h290v-1000q0 -190 -123 -315t-313 -125t-313 125t-123 315zM410 1544l182 369l268 -115l-203 -254h-247z" />
<glyph unicode="&#xfb;" horiz-adv-x="1118" d="M123 434v1000h291v-1010q0 -72 41.5 -116t103.5 -44t104 44t42 116v1010h290v-1000q0 -190 -123 -315t-313 -125t-313 125t-123 315zM186 1569l373 336l373 -336h-303l-70 80l-70 -80h-303z" />
<glyph unicode="&#xfc;" horiz-adv-x="1118" d="M123 434v1000h291v-1010q0 -72 41.5 -116t103.5 -44t104 44t42 116v1010h290v-1000q0 -190 -123 -315t-313 -125t-313 125t-123 315zM205 1563v227h287v-227h-287zM627 1563v227h286v-227h-286z" />
<glyph unicode="&#xfd;" horiz-adv-x="1126" d="M12 1434h332l221 -527l219 527h332l-403 -830v-604h-295v604zM440 1544l183 369l270 -115l-205 -254h-248z" />
<glyph unicode="&#xff;" horiz-adv-x="1126" d="M12 1434h330l221 -525l221 525h332l-405 -828v-606h-295v606zM209 1563v227h287v-227h-287zM631 1563v227h287v-227h-287z" />
<glyph unicode="&#x178;" horiz-adv-x="1126" d="M12 1434h330l221 -525l221 525h332l-405 -828v-606h-295v606zM209 1563v227h287v-227h-287zM631 1563v227h287v-227h-287z" />
<glyph unicode="&#x2c6;" horiz-adv-x="1216" d="M236 1569l372 336l373 -336h-303l-70 80l-69 -80h-303z" />
<glyph unicode="&#x2dc;" horiz-adv-x="1333" d="M350 1667q0 88 52.5 149.5t129.5 61.5q55 0 129.5 -34t104.5 -34q59 0 65 72h136q16 -50 16 -104q0 -87 -52.5 -149t-129.5 -62q-54 0 -129 34.5t-105 34.5q-59 0 -65 -71h-135q-17 44 -17 102z" />
<glyph unicode="&#x2000;" horiz-adv-x="956" />
<glyph unicode="&#x2001;" horiz-adv-x="1913" />
<glyph unicode="&#x2002;" horiz-adv-x="956" />
<glyph unicode="&#x2003;" horiz-adv-x="1913" />
<glyph unicode="&#x2004;" horiz-adv-x="637" />
<glyph unicode="&#x2005;" horiz-adv-x="478" />
<glyph unicode="&#x2006;" horiz-adv-x="318" />
<glyph unicode="&#x2007;" horiz-adv-x="318" />
<glyph unicode="&#x2008;" horiz-adv-x="239" />
<glyph unicode="&#x2009;" horiz-adv-x="382" />
<glyph unicode="&#x200a;" horiz-adv-x="106" />
<glyph unicode="&#x2010;" horiz-adv-x="714" d="M80 518v275h557v-275h-557z" />
<glyph unicode="&#x2011;" horiz-adv-x="714" d="M80 518v275h557v-275h-557z" />
<glyph unicode="&#x2012;" horiz-adv-x="714" d="M80 518v275h557v-275h-557z" />
<glyph unicode="&#x2013;" horiz-adv-x="970" d="M80 518v275h811v-275h-811z" />
<glyph unicode="&#x2014;" horiz-adv-x="1591" d="M80 518v275h1431v-275h-1431z" />
<glyph unicode="&#x2018;" horiz-adv-x="509" d="M80 1153q0 169 84 375h213q-23 -157 -23 -277q0 -130 23 -239h-279q-18 78 -18 141z" />
<glyph unicode="&#x2019;" horiz-adv-x="501" d="M123 1012q24 141 24 276q0 136 -24 240h280q19 -86 19 -142q0 -171 -84 -374h-215z" />
<glyph unicode="&#x201a;" horiz-adv-x="495" d="M80 -248q22 150 22 277q0 135 -22 239h280q17 -89 17 -141q0 -172 -84 -375h-213z" />
<glyph unicode="&#x201c;" horiz-adv-x="901" d="M80 1153q0 169 84 375h213q-23 -157 -23 -277q0 -130 23 -239h-279q-18 78 -18 141zM469 1153q0 169 84 375h215q-23 -157 -23 -277q0 -130 23 -239h-281q-18 78 -18 141z" />
<glyph unicode="&#x201d;" horiz-adv-x="890" d="M123 1012q24 141 24 276q0 136 -24 240h280q19 -86 19 -142q0 -171 -84 -374h-215zM514 1012q23 152 23 276q0 128 -23 240h281q16 -72 16 -142q0 -176 -82 -374h-215z" />
<glyph unicode="&#x201e;" horiz-adv-x="884" d="M80 -248q22 150 22 277q0 135 -22 239h280q17 -89 17 -141q0 -172 -84 -375h-213zM469 -248q23 157 23 277q0 130 -23 239h281q18 -81 18 -141q0 -172 -84 -375h-215z" />
<glyph unicode="&#x2022;" horiz-adv-x="1196" d="M80 723q279 247 518 518q239 -271 518 -518q-255 -221 -518 -518q-263 297 -518 518zM430 723q78 -69 168 -178q90 109 168 178q-78 69 -168 178q-90 -109 -168 -178z" />
<glyph unicode="&#x2026;" horiz-adv-x="1744" d="M147 0v313h306v-313h-306zM729 0v313h305v-313h-305zM1309 0v313h303v-313h-303z" />
<glyph unicode="&#x202f;" horiz-adv-x="382" />
<glyph unicode="&#x2039;" horiz-adv-x="614" d="M78 719q22 50 55 116t51 101t66.5 125t54.5 102l230 -90q-31 -58 -183 -354q116 -231 183 -354l-234 -97q-162 313 -223 451z" />
<glyph unicode="&#x203a;" horiz-adv-x="614" d="M78 365q52 96 182 354q-169 331 -182 354l231 90q176 -331 226 -444q-55 -124 -224 -451z" />
<glyph unicode="&#x205f;" horiz-adv-x="478" />
<glyph unicode="&#x20ac;" horiz-adv-x="1196" d="M78 768l28 147h162q42 233 174 380t293 147q119 0 226.5 -84t179.5 -240l-258 -135q-55 172 -148 172q-52 0 -101 -65.5t-75 -174.5h301l-29 -147h-290v-86h321l-28 -145h-277q21 -126 70.5 -194.5t107.5 -68.5q106 0 166 228l258 -152q-67 -165 -181.5 -260.5 t-240.5 -95.5q-79 0 -153.5 34.5t-138.5 100.5t-111.5 171t-67.5 237h-186l29 145h143v86h-174z" />
<glyph unicode="&#xe000;" horiz-adv-x="1433" d="M0 0v1434h1434v-1434h-1434z" />
</font>
</defs>
</svg>
