<?xml version="1.0" encoding="utf-8"?>
<!-- Generator: Adobe Illustrator 15.0.0, SVG Export Plug-In . SVG Version: 6.00 Build 0)  -->
<!DOCTYPE svg PUBLIC "-//W3C//DTD SVG 1.1//EN" "http://www.w3.org/Graphics/SVG/1.1/DTD/svg11.dtd">
<svg version="1.1" xmlns="http://www.w3.org/2000/svg" xmlns:xlink="http://www.w3.org/1999/xlink" x="0px" y="0px" width="30px"
	 height="30px" viewBox="0 0 30 30" enable-background="new 0 0 30 30" xml:space="preserve">
<g id="Layer_2" display="none">
	<rect x="-2.5" y="-2.5" display="inline" fill="#4D4D4D" width="34" height="35"/>
</g>
<g id="menu" display="none">
	<path display="inline" fill="#FFFFFF" d="M15,0C6.715,0,0,6.715,0,15c0,8.284,6.715,15,15,15c8.284,0,15-6.716,15-15
		C30,6.715,23.284,0,15,0z M14.95,27.5C8.018,27.5,2.4,21.881,2.4,14.95S8.018,2.4,14.95,2.4c6.931,0,12.55,5.619,12.55,12.55
		S21.881,27.5,14.95,27.5z"/>
	<g display="inline">
		<path fill="#FFFFFF" d="M22.5,9.74c0,0.972-0.788,1.76-1.76,1.76H9.26c-0.972,0-1.76-0.788-1.76-1.76V9.26
			c0-0.972,0.788-1.76,1.76-1.76h11.48c0.972,0,1.76,0.788,1.76,1.76V9.74z"/>
		<path fill="#FFFFFF" d="M22.5,15.74c0,0.972-0.788,1.76-1.76,1.76H9.26c-0.972,0-1.76-0.788-1.76-1.76v-0.48
			c0-0.972,0.788-1.76,1.76-1.76h11.48c0.972,0,1.76,0.788,1.76,1.76V15.74z"/>
		<path fill="#FFFFFF" d="M22.5,21.74c0,0.972-0.788,1.76-1.76,1.76H9.26c-0.972,0-1.76-0.788-1.76-1.76v-0.48
			c0-0.972,0.788-1.76,1.76-1.76h11.48c0.972,0,1.76,0.788,1.76,1.76V21.74z"/>
	</g>
</g>
<g id="Layer_3">
	<g>
		
			<line fill="none" stroke="#FFFFFF" stroke-width="3" stroke-linecap="round" stroke-linejoin="round" stroke-miterlimit="10" x1="8.834" y1="8.833" x2="21.166" y2="21.166"/>
		
			<line fill="none" stroke="#FFFFFF" stroke-width="3" stroke-linecap="round" stroke-linejoin="round" stroke-miterlimit="10" x1="21.166" y1="8.833" x2="8.834" y2="21.166"/>
	</g>
	<path fill="#FFFFFF" d="M15,0C6.715,0,0,6.715,0,15c0,8.284,6.715,15,15,15c8.284,0,15-6.716,15-15C30,6.715,23.284,0,15,0z
		 M14.95,27.5C8.018,27.5,2.4,21.881,2.4,14.95S8.018,2.4,14.95,2.4c6.931,0,12.55,5.619,12.55,12.55S21.881,27.5,14.95,27.5z"/>
</g>
</svg>
