<?xml version="1.0" encoding="utf-8"?>
<!-- Generator: Adobe Illustrator 14.0.0, SVG Export Plug-In . SVG Version: 6.00 Build 43363)  -->
<!DOCTYPE svg PUBLIC "-//W3C//DTD SVG 1.1//EN" "http://www.w3.org/Graphics/SVG/1.1/DTD/svg11.dtd">
<svg version="1.1" id="Layer_1" xmlns="http://www.w3.org/2000/svg" xmlns:xlink="http://www.w3.org/1999/xlink" x="0px" y="0px"
	 width="454.736px" height="202.105px" viewBox="0 0 454.736 202.105" enable-background="new 0 0 454.736 202.105"
	 xml:space="preserve">
<path fill="none" stroke="#FFFFFF" stroke-width="1.2" stroke-miterlimit="10" d="M169.897,164.674
	c34.641,0.017,135.726-8.858,126.088-72.323c-8.598-56.617-149.728-63.431-184.108-64.273C80.149,27.297,7.692,61.125,45.583,115.19
	c28.934,41.281,105.348,51.213,147.445,51.582c32.303,0.283,133.428-10.521,114.329-76.34
	c-12.457-42.929-74.916-50.641-105.585-53.104c-48.882-3.926-125.685-11.014-168.325,25.26
	c-37.923,32.259-1.062,66.031,29.776,81.179c46.213,22.698,162.447,20.127,257.828,20.443c49.5,0.164,76.941-1.857,118.95-12.324"/>
</svg>
